<?xml version="1.0" encoding="utf-8" standalone="no"?>
<!DOCTYPE svg PUBLIC "-//W3C//DTD SVG 1.1//EN"
  "http://www.w3.org/Graphics/SVG/1.1/DTD/svg11.dtd">
<!-- Created with matplotlib (https://matplotlib.org/) -->
<svg height="714.96pt" version="1.1" viewBox="0 0 1382.4 714.96" width="1382.4pt" xmlns="http://www.w3.org/2000/svg" xmlns:xlink="http://www.w3.org/1999/xlink">
 <defs>
  <style type="text/css">
*{stroke-linecap:butt;stroke-linejoin:round;}
  </style>
 </defs>
 <g id="figure_1">
  <g id="patch_1">
   <path d="M 0 714.96 
L 1382.4 714.96 
L 1382.4 0 
L 0 0 
z
" style="fill:#ffffff;"/>
  </g>
  <g id="axes_1">
   <g id="patch_2">
    <path d="M 172.8 160.189686 
L 1244.16 160.189686 
L 1244.16 85.7952 
L 172.8 85.7952 
z
" style="fill:#ffffff;"/>
   </g>
   <g id="patch_3">
    <path clip-path="url(#p1b3f5df233)" d="M 226.368 122.992443 
L 262.08 122.992443 
L 262.08 94.436406 
L 226.368 94.436406 
z
" style="fill:#1f77b4;"/>
   </g>
   <g id="patch_4">
    <path clip-path="url(#p1b3f5df233)" d="M 440.64 122.992443 
L 476.352 122.992443 
L 476.352 91.55568 
L 440.64 91.55568 
z
" style="fill:#1f77b4;"/>
   </g>
   <g id="patch_5">
    <path clip-path="url(#p1b3f5df233)" d="M 654.912 122.992443 
L 690.624 122.992443 
L 690.624 103.385891 
L 654.912 103.385891 
z
" style="fill:#1f77b4;"/>
   </g>
   <g id="patch_6">
    <path clip-path="url(#p1b3f5df233)" d="M 869.184 122.992443 
L 904.896 122.992443 
L 904.896 93.811406 
L 869.184 93.811406 
z
" style="fill:#1f77b4;"/>
   </g>
   <g id="patch_7">
    <path clip-path="url(#p1b3f5df233)" d="M 1083.456 122.992443 
L 1119.168 122.992443 
L 1119.168 90.635878 
L 1083.456 90.635878 
z
" style="fill:#1f77b4;"/>
   </g>
   <g id="patch_8">
    <path clip-path="url(#p1b3f5df233)" d="M 262.08 122.992443 
L 297.792 122.992443 
L 297.792 117.007664 
L 262.08 117.007664 
z
" style="fill:#ff7f0e;"/>
   </g>
   <g id="patch_9">
    <path clip-path="url(#p1b3f5df233)" d="M 476.352 122.992443 
L 512.064 122.992443 
L 512.064 115.968345 
L 476.352 115.968345 
z
" style="fill:#ff7f0e;"/>
   </g>
   <g id="patch_10">
    <path clip-path="url(#p1b3f5df233)" d="M 690.624 122.992443 
L 726.336 122.992443 
L 726.336 120.154494 
L 690.624 120.154494 
z
" style="fill:#ff7f0e;"/>
   </g>
   <g id="patch_11">
    <path clip-path="url(#p1b3f5df233)" d="M 904.896 122.992443 
L 940.608 122.992443 
L 940.608 116.684706 
L 904.896 116.684706 
z
" style="fill:#ff7f0e;"/>
   </g>
   <g id="patch_12">
    <path clip-path="url(#p1b3f5df233)" d="M 1119.168 122.992443 
L 1154.88 122.992443 
L 1154.88 115.635859 
L 1119.168 115.635859 
z
" style="fill:#ff7f0e;"/>
   </g>
   <g id="patch_13">
    <path clip-path="url(#p1b3f5df233)" d="M 297.792 122.992443 
L 333.504 122.992443 
L 333.504 121.813319 
L 297.792 121.813319 
z
" style="fill:#2ca02c;"/>
   </g>
   <g id="patch_14">
    <path clip-path="url(#p1b3f5df233)" d="M 512.064 122.992443 
L 547.776 122.992443 
L 547.776 118.932851 
L 512.064 118.932851 
z
" style="fill:#2ca02c;"/>
   </g>
   <g id="patch_15">
    <path clip-path="url(#p1b3f5df233)" d="M 726.336 122.992443 
L 762.048 122.992443 
L 762.048 130.763062 
L 726.336 130.763062 
z
" style="fill:#2ca02c;"/>
   </g>
   <g id="patch_16">
    <path clip-path="url(#p1b3f5df233)" d="M 940.608 122.992443 
L 976.32 122.992443 
L 976.32 121.188577 
L 940.608 121.188577 
z
" style="fill:#2ca02c;"/>
   </g>
   <g id="patch_17">
    <path clip-path="url(#p1b3f5df233)" d="M 1154.88 122.992443 
L 1190.592 122.992443 
L 1190.592 118.013049 
L 1154.88 118.013049 
z
" style="fill:#2ca02c;"/>
   </g>
   <g id="matplotlib.axis_1">
    <g id="xtick_1">
     <g id="line2d_1">
      <defs>
       <path d="M 0 0 
L 0 3.5 
" id="mb4b51a97b5" style="stroke:#000000;stroke-width:0.8;"/>
      </defs>
      <g>
       <use style="stroke:#000000;stroke-width:0.8;" x="279.936" xlink:href="#mb4b51a97b5" y="160.189686"/>
      </g>
     </g>
     <g id="text_1">
      <!-- USA -->
      <defs>
       <path d="M 8.6875 72.90625 
L 18.609375 72.90625 
L 18.609375 28.609375 
Q 18.609375 16.890625 22.84375 11.734375 
Q 27.09375 6.59375 36.625 6.59375 
Q 46.09375 6.59375 50.34375 11.734375 
Q 54.59375 16.890625 54.59375 28.609375 
L 54.59375 72.90625 
L 64.5 72.90625 
L 64.5 27.390625 
Q 64.5 13.140625 57.4375 5.859375 
Q 50.390625 -1.421875 36.625 -1.421875 
Q 22.796875 -1.421875 15.734375 5.859375 
Q 8.6875 13.140625 8.6875 27.390625 
z
" id="DejaVuSans-85"/>
       <path d="M 53.515625 70.515625 
L 53.515625 60.890625 
Q 47.90625 63.578125 42.921875 64.890625 
Q 37.9375 66.21875 33.296875 66.21875 
Q 25.25 66.21875 20.875 63.09375 
Q 16.5 59.96875 16.5 54.203125 
Q 16.5 49.359375 19.40625 46.890625 
Q 22.3125 44.4375 30.421875 42.921875 
L 36.375 41.703125 
Q 47.40625 39.59375 52.65625 34.296875 
Q 57.90625 29 57.90625 20.125 
Q 57.90625 9.515625 50.796875 4.046875 
Q 43.703125 -1.421875 29.984375 -1.421875 
Q 24.8125 -1.421875 18.96875 -0.25 
Q 13.140625 0.921875 6.890625 3.21875 
L 6.890625 13.375 
Q 12.890625 10.015625 18.65625 8.296875 
Q 24.421875 6.59375 29.984375 6.59375 
Q 38.421875 6.59375 43.015625 9.90625 
Q 47.609375 13.234375 47.609375 19.390625 
Q 47.609375 24.75 44.3125 27.78125 
Q 41.015625 30.8125 33.5 32.328125 
L 27.484375 33.5 
Q 16.453125 35.6875 11.515625 40.375 
Q 6.59375 45.0625 6.59375 53.421875 
Q 6.59375 63.09375 13.40625 68.65625 
Q 20.21875 74.21875 32.171875 74.21875 
Q 37.3125 74.21875 42.625 73.28125 
Q 47.953125 72.359375 53.515625 70.515625 
z
" id="DejaVuSans-83"/>
       <path d="M 34.1875 63.1875 
L 20.796875 26.90625 
L 47.609375 26.90625 
z
M 28.609375 72.90625 
L 39.796875 72.90625 
L 67.578125 0 
L 57.328125 0 
L 50.6875 18.703125 
L 17.828125 18.703125 
L 11.1875 0 
L 0.78125 0 
z
" id="DejaVuSans-65"/>
      </defs>
      <g transform="translate(267.630375 176.307811)scale(0.12 -0.12)">
       <use xlink:href="#DejaVuSans-85"/>
       <use x="73.193359" xlink:href="#DejaVuSans-83"/>
       <use x="136.685547" xlink:href="#DejaVuSans-65"/>
      </g>
     </g>
    </g>
    <g id="xtick_2">
     <g id="line2d_2">
      <g>
       <use style="stroke:#000000;stroke-width:0.8;" x="494.208" xlink:href="#mb4b51a97b5" y="160.189686"/>
      </g>
     </g>
     <g id="text_2">
      <!-- EU -->
      <defs>
       <path d="M 9.8125 72.90625 
L 55.90625 72.90625 
L 55.90625 64.59375 
L 19.671875 64.59375 
L 19.671875 43.015625 
L 54.390625 43.015625 
L 54.390625 34.71875 
L 19.671875 34.71875 
L 19.671875 8.296875 
L 56.78125 8.296875 
L 56.78125 0 
L 9.8125 0 
z
" id="DejaVuSans-69"/>
      </defs>
      <g transform="translate(486.0255 176.307811)scale(0.12 -0.12)">
       <use xlink:href="#DejaVuSans-69"/>
       <use x="63.183594" xlink:href="#DejaVuSans-85"/>
      </g>
     </g>
    </g>
    <g id="xtick_3">
     <g id="line2d_3">
      <g>
       <use style="stroke:#000000;stroke-width:0.8;" x="708.48" xlink:href="#mb4b51a97b5" y="160.189686"/>
      </g>
     </g>
     <g id="text_3">
      <!-- India  -->
      <defs>
       <path d="M 9.8125 72.90625 
L 19.671875 72.90625 
L 19.671875 0 
L 9.8125 0 
z
" id="DejaVuSans-73"/>
       <path d="M 54.890625 33.015625 
L 54.890625 0 
L 45.90625 0 
L 45.90625 32.71875 
Q 45.90625 40.484375 42.875 44.328125 
Q 39.84375 48.1875 33.796875 48.1875 
Q 26.515625 48.1875 22.3125 43.546875 
Q 18.109375 38.921875 18.109375 30.90625 
L 18.109375 0 
L 9.078125 0 
L 9.078125 54.6875 
L 18.109375 54.6875 
L 18.109375 46.1875 
Q 21.34375 51.125 25.703125 53.5625 
Q 30.078125 56 35.796875 56 
Q 45.21875 56 50.046875 50.171875 
Q 54.890625 44.34375 54.890625 33.015625 
z
" id="DejaVuSans-110"/>
       <path d="M 45.40625 46.390625 
L 45.40625 75.984375 
L 54.390625 75.984375 
L 54.390625 0 
L 45.40625 0 
L 45.40625 8.203125 
Q 42.578125 3.328125 38.25 0.953125 
Q 33.9375 -1.421875 27.875 -1.421875 
Q 17.96875 -1.421875 11.734375 6.484375 
Q 5.515625 14.40625 5.515625 27.296875 
Q 5.515625 40.1875 11.734375 48.09375 
Q 17.96875 56 27.875 56 
Q 33.9375 56 38.25 53.625 
Q 42.578125 51.265625 45.40625 46.390625 
z
M 14.796875 27.296875 
Q 14.796875 17.390625 18.875 11.75 
Q 22.953125 6.109375 30.078125 6.109375 
Q 37.203125 6.109375 41.296875 11.75 
Q 45.40625 17.390625 45.40625 27.296875 
Q 45.40625 37.203125 41.296875 42.84375 
Q 37.203125 48.484375 30.078125 48.484375 
Q 22.953125 48.484375 18.875 42.84375 
Q 14.796875 37.203125 14.796875 27.296875 
z
" id="DejaVuSans-100"/>
       <path d="M 9.421875 54.6875 
L 18.40625 54.6875 
L 18.40625 0 
L 9.421875 0 
z
M 9.421875 75.984375 
L 18.40625 75.984375 
L 18.40625 64.59375 
L 9.421875 64.59375 
z
" id="DejaVuSans-105"/>
       <path d="M 34.28125 27.484375 
Q 23.390625 27.484375 19.1875 25 
Q 14.984375 22.515625 14.984375 16.5 
Q 14.984375 11.71875 18.140625 8.90625 
Q 21.296875 6.109375 26.703125 6.109375 
Q 34.1875 6.109375 38.703125 11.40625 
Q 43.21875 16.703125 43.21875 25.484375 
L 43.21875 27.484375 
z
M 52.203125 31.203125 
L 52.203125 0 
L 43.21875 0 
L 43.21875 8.296875 
Q 40.140625 3.328125 35.546875 0.953125 
Q 30.953125 -1.421875 24.3125 -1.421875 
Q 15.921875 -1.421875 10.953125 3.296875 
Q 6 8.015625 6 15.921875 
Q 6 25.140625 12.171875 29.828125 
Q 18.359375 34.515625 30.609375 34.515625 
L 43.21875 34.515625 
L 43.21875 35.40625 
Q 43.21875 41.609375 39.140625 45 
Q 35.0625 48.390625 27.6875 48.390625 
Q 23 48.390625 18.546875 47.265625 
Q 14.109375 46.140625 10.015625 43.890625 
L 10.015625 52.203125 
Q 14.9375 54.109375 19.578125 55.046875 
Q 24.21875 56 28.609375 56 
Q 40.484375 56 46.34375 49.84375 
Q 52.203125 43.703125 52.203125 31.203125 
z
" id="DejaVuSans-97"/>
       <path id="DejaVuSans-32"/>
      </defs>
      <g transform="translate(691.847813 176.307811)scale(0.12 -0.12)">
       <use xlink:href="#DejaVuSans-73"/>
       <use x="29.492188" xlink:href="#DejaVuSans-110"/>
       <use x="92.871094" xlink:href="#DejaVuSans-100"/>
       <use x="156.347656" xlink:href="#DejaVuSans-105"/>
       <use x="184.130859" xlink:href="#DejaVuSans-97"/>
       <use x="245.410156" xlink:href="#DejaVuSans-32"/>
      </g>
     </g>
    </g>
    <g id="xtick_4">
     <g id="line2d_4">
      <g>
       <use style="stroke:#000000;stroke-width:0.8;" x="922.752" xlink:href="#mb4b51a97b5" y="160.189686"/>
      </g>
     </g>
     <g id="text_4">
      <!-- Brazil -->
      <defs>
       <path d="M 19.671875 34.8125 
L 19.671875 8.109375 
L 35.5 8.109375 
Q 43.453125 8.109375 47.28125 11.40625 
Q 51.125 14.703125 51.125 21.484375 
Q 51.125 28.328125 47.28125 31.5625 
Q 43.453125 34.8125 35.5 34.8125 
z
M 19.671875 64.796875 
L 19.671875 42.828125 
L 34.28125 42.828125 
Q 41.5 42.828125 45.03125 45.53125 
Q 48.578125 48.25 48.578125 53.8125 
Q 48.578125 59.328125 45.03125 62.0625 
Q 41.5 64.796875 34.28125 64.796875 
z
M 9.8125 72.90625 
L 35.015625 72.90625 
Q 46.296875 72.90625 52.390625 68.21875 
Q 58.5 63.53125 58.5 54.890625 
Q 58.5 48.1875 55.375 44.234375 
Q 52.25 40.28125 46.1875 39.3125 
Q 53.46875 37.75 57.5 32.78125 
Q 61.53125 27.828125 61.53125 20.40625 
Q 61.53125 10.640625 54.890625 5.3125 
Q 48.25 0 35.984375 0 
L 9.8125 0 
z
" id="DejaVuSans-66"/>
       <path d="M 41.109375 46.296875 
Q 39.59375 47.171875 37.8125 47.578125 
Q 36.03125 48 33.890625 48 
Q 26.265625 48 22.1875 43.046875 
Q 18.109375 38.09375 18.109375 28.8125 
L 18.109375 0 
L 9.078125 0 
L 9.078125 54.6875 
L 18.109375 54.6875 
L 18.109375 46.1875 
Q 20.953125 51.171875 25.484375 53.578125 
Q 30.03125 56 36.53125 56 
Q 37.453125 56 38.578125 55.875 
Q 39.703125 55.765625 41.0625 55.515625 
z
" id="DejaVuSans-114"/>
       <path d="M 5.515625 54.6875 
L 48.1875 54.6875 
L 48.1875 46.484375 
L 14.40625 7.171875 
L 48.1875 7.171875 
L 48.1875 0 
L 4.296875 0 
L 4.296875 8.203125 
L 38.09375 47.515625 
L 5.515625 47.515625 
z
" id="DejaVuSans-122"/>
       <path d="M 9.421875 75.984375 
L 18.40625 75.984375 
L 18.40625 0 
L 9.421875 0 
z
" id="DejaVuSans-108"/>
      </defs>
      <g transform="translate(906.009187 176.307811)scale(0.12 -0.12)">
       <use xlink:href="#DejaVuSans-66"/>
       <use x="68.603516" xlink:href="#DejaVuSans-114"/>
       <use x="109.716797" xlink:href="#DejaVuSans-97"/>
       <use x="170.996094" xlink:href="#DejaVuSans-122"/>
       <use x="223.486328" xlink:href="#DejaVuSans-105"/>
       <use x="251.269531" xlink:href="#DejaVuSans-108"/>
      </g>
     </g>
    </g>
    <g id="xtick_5">
     <g id="line2d_5">
      <g>
       <use style="stroke:#000000;stroke-width:0.8;" x="1137.024" xlink:href="#mb4b51a97b5" y="160.189686"/>
      </g>
     </g>
     <g id="text_5">
      <!-- UK -->
      <defs>
       <path d="M 9.8125 72.90625 
L 19.671875 72.90625 
L 19.671875 42.09375 
L 52.390625 72.90625 
L 65.09375 72.90625 
L 28.90625 38.921875 
L 67.671875 0 
L 54.6875 0 
L 19.671875 35.109375 
L 19.671875 0 
L 9.8125 0 
z
" id="DejaVuSans-75"/>
      </defs>
      <g transform="translate(1128.698062 176.307811)scale(0.12 -0.12)">
       <use xlink:href="#DejaVuSans-85"/>
       <use x="73.193359" xlink:href="#DejaVuSans-75"/>
      </g>
     </g>
    </g>
   </g>
   <g id="matplotlib.axis_2">
    <g id="ytick_1">
     <g id="line2d_6">
      <defs>
       <path d="M 0 0 
L -3.5 0 
" id="m71dfe3234e" style="stroke:#000000;stroke-width:0.8;"/>
      </defs>
      <g>
       <use style="stroke:#000000;stroke-width:0.8;" x="172.8" xlink:href="#m71dfe3234e" y="151.605707"/>
      </g>
     </g>
     <g id="text_6">
      <!-- −10000 -->
      <defs>
       <path d="M 10.59375 35.5 
L 73.1875 35.5 
L 73.1875 27.203125 
L 10.59375 27.203125 
z
" id="DejaVuSans-8722"/>
       <path d="M 12.40625 8.296875 
L 28.515625 8.296875 
L 28.515625 63.921875 
L 10.984375 60.40625 
L 10.984375 69.390625 
L 28.421875 72.90625 
L 38.28125 72.90625 
L 38.28125 8.296875 
L 54.390625 8.296875 
L 54.390625 0 
L 12.40625 0 
z
" id="DejaVuSans-49"/>
       <path d="M 31.78125 66.40625 
Q 24.171875 66.40625 20.328125 58.90625 
Q 16.5 51.421875 16.5 36.375 
Q 16.5 21.390625 20.328125 13.890625 
Q 24.171875 6.390625 31.78125 6.390625 
Q 39.453125 6.390625 43.28125 13.890625 
Q 47.125 21.390625 47.125 36.375 
Q 47.125 51.421875 43.28125 58.90625 
Q 39.453125 66.40625 31.78125 66.40625 
z
M 31.78125 74.21875 
Q 44.046875 74.21875 50.515625 64.515625 
Q 56.984375 54.828125 56.984375 36.375 
Q 56.984375 17.96875 50.515625 8.265625 
Q 44.046875 -1.421875 31.78125 -1.421875 
Q 19.53125 -1.421875 13.0625 8.265625 
Q 6.59375 17.96875 6.59375 36.375 
Q 6.59375 54.828125 13.0625 64.515625 
Q 19.53125 74.21875 31.78125 74.21875 
z
" id="DejaVuSans-48"/>
      </defs>
      <g transform="translate(117.569375 156.16477)scale(0.12 -0.12)">
       <use xlink:href="#DejaVuSans-8722"/>
       <use x="83.789062" xlink:href="#DejaVuSans-49"/>
       <use x="147.412109" xlink:href="#DejaVuSans-48"/>
       <use x="211.035156" xlink:href="#DejaVuSans-48"/>
       <use x="274.658203" xlink:href="#DejaVuSans-48"/>
       <use x="338.28125" xlink:href="#DejaVuSans-48"/>
      </g>
     </g>
    </g>
    <g id="ytick_2">
     <g id="line2d_7">
      <g>
       <use style="stroke:#000000;stroke-width:0.8;" x="172.8" xlink:href="#m71dfe3234e" y="122.992443"/>
      </g>
     </g>
     <g id="text_7">
      <!-- 0 -->
      <g transform="translate(158.165 127.551506)scale(0.12 -0.12)">
       <use xlink:href="#DejaVuSans-48"/>
      </g>
     </g>
    </g>
    <g id="ytick_3">
     <g id="line2d_8">
      <g>
       <use style="stroke:#000000;stroke-width:0.8;" x="172.8" xlink:href="#m71dfe3234e" y="94.379179"/>
      </g>
     </g>
     <g id="text_8">
      <!-- 10000 -->
      <g transform="translate(127.625 98.938242)scale(0.12 -0.12)">
       <use xlink:href="#DejaVuSans-49"/>
       <use x="63.623047" xlink:href="#DejaVuSans-48"/>
       <use x="127.246094" xlink:href="#DejaVuSans-48"/>
       <use x="190.869141" xlink:href="#DejaVuSans-48"/>
       <use x="254.492188" xlink:href="#DejaVuSans-48"/>
      </g>
     </g>
    </g>
    <g id="text_9">
     <!-- NEB $(MJ/t_{DM})$ -->
     <defs>
      <path d="M 9.8125 72.90625 
L 23.09375 72.90625 
L 55.421875 11.921875 
L 55.421875 72.90625 
L 64.984375 72.90625 
L 64.984375 0 
L 51.703125 0 
L 19.390625 60.984375 
L 19.390625 0 
L 9.8125 0 
z
" id="DejaVuSans-78"/>
      <path d="M 31 75.875 
Q 24.46875 64.65625 21.28125 53.65625 
Q 18.109375 42.671875 18.109375 31.390625 
Q 18.109375 20.125 21.3125 9.0625 
Q 24.515625 -2 31 -13.1875 
L 23.1875 -13.1875 
Q 15.875 -1.703125 12.234375 9.375 
Q 8.59375 20.453125 8.59375 31.390625 
Q 8.59375 42.28125 12.203125 53.3125 
Q 15.828125 64.359375 23.1875 75.875 
z
" id="DejaVuSans-40"/>
      <path d="M 16.890625 72.90625 
L 31.6875 72.90625 
L 40.1875 23.78125 
L 68.40625 72.90625 
L 83.59375 72.90625 
L 69.390625 0 
L 59.8125 0 
L 72.21875 63.921875 
L 43.609375 14.015625 
L 33.984375 14.015625 
L 24.703125 64.109375 
L 12.3125 0 
L 2.6875 0 
z
" id="DejaVuSans-Oblique-77"/>
      <path d="M 16.703125 72.90625 
L 26.609375 72.90625 
L 13.375 5.078125 
Q 10.796875 -8.15625 4.65625 -14.078125 
Q -1.46875 -20.015625 -12.5 -20.015625 
L -16.40625 -20.015625 
L -14.796875 -11.71875 
L -11.71875 -11.71875 
Q -5.125 -11.71875 -1.703125 -7.953125 
Q 1.703125 -4.203125 3.515625 5.078125 
z
" id="DejaVuSans-Oblique-74"/>
      <path d="M 25.390625 72.90625 
L 33.6875 72.90625 
L 8.296875 -9.28125 
L 0 -9.28125 
z
" id="DejaVuSans-47"/>
      <path d="M 42.28125 54.6875 
L 40.921875 47.703125 
L 23 47.703125 
L 17.1875 18.015625 
Q 16.890625 16.359375 16.75 15.234375 
Q 16.609375 14.109375 16.609375 13.484375 
Q 16.609375 10.359375 18.484375 8.9375 
Q 20.359375 7.515625 24.515625 7.515625 
L 33.59375 7.515625 
L 32.078125 0 
L 23.484375 0 
Q 15.484375 0 11.546875 3.125 
Q 7.625 6.25 7.625 12.59375 
Q 7.625 13.71875 7.765625 15.0625 
Q 7.90625 16.40625 8.203125 18.015625 
L 14.015625 47.703125 
L 6.390625 47.703125 
L 7.8125 54.6875 
L 15.28125 54.6875 
L 18.3125 70.21875 
L 27.296875 70.21875 
L 24.3125 54.6875 
z
" id="DejaVuSans-Oblique-116"/>
      <path d="M 16.890625 72.90625 
L 38.09375 72.90625 
Q 54.984375 72.90625 63.59375 65.75 
Q 72.21875 58.59375 72.21875 44.484375 
Q 72.21875 35.15625 68.9375 26.53125 
Q 65.671875 17.921875 59.90625 12.015625 
Q 54.109375 5.953125 45.171875 2.96875 
Q 36.234375 0 24.03125 0 
L 2.6875 0 
z
M 25.203125 64.796875 
L 14.203125 8.109375 
L 27.09375 8.109375 
Q 43.65625 8.109375 52.734375 17.625 
Q 61.8125 27.15625 61.8125 44.484375 
Q 61.8125 54.984375 55.953125 59.890625 
Q 50.09375 64.796875 37.59375 64.796875 
z
" id="DejaVuSans-Oblique-68"/>
      <path d="M 8.015625 75.875 
L 15.828125 75.875 
Q 23.140625 64.359375 26.78125 53.3125 
Q 30.421875 42.28125 30.421875 31.390625 
Q 30.421875 20.453125 26.78125 9.375 
Q 23.140625 -1.703125 15.828125 -13.1875 
L 8.015625 -13.1875 
Q 14.5 -2 17.703125 9.0625 
Q 20.90625 20.125 20.90625 31.390625 
Q 20.90625 42.671875 17.703125 53.65625 
Q 14.5 64.65625 8.015625 75.875 
z
" id="DejaVuSans-41"/>
     </defs>
     <g transform="translate(111.049375 160.372443)rotate(-90)scale(0.12 -0.12)">
      <use transform="translate(0 0.125)" xlink:href="#DejaVuSans-78"/>
      <use transform="translate(74.804688 0.125)" xlink:href="#DejaVuSans-69"/>
      <use transform="translate(137.988281 0.125)" xlink:href="#DejaVuSans-66"/>
      <use transform="translate(206.591797 0.125)" xlink:href="#DejaVuSans-32"/>
      <use transform="translate(238.378906 0.125)" xlink:href="#DejaVuSans-40"/>
      <use transform="translate(277.392578 0.125)" xlink:href="#DejaVuSans-Oblique-77"/>
      <use transform="translate(363.671875 0.125)" xlink:href="#DejaVuSans-Oblique-74"/>
      <use transform="translate(393.164062 0.125)" xlink:href="#DejaVuSans-47"/>
      <use transform="translate(426.855469 0.125)" xlink:href="#DejaVuSans-Oblique-116"/>
      <use transform="translate(466.064453 -16.28125)scale(0.7)" xlink:href="#DejaVuSans-Oblique-68"/>
      <use transform="translate(519.96582 -16.28125)scale(0.7)" xlink:href="#DejaVuSans-Oblique-77"/>
      <use transform="translate(583.095703 0.125)" xlink:href="#DejaVuSans-41"/>
     </g>
    </g>
   </g>
   <g id="LineCollection_1">
    <path clip-path="url(#p1b3f5df233)" d="M 243.50976 90.664376 
L 243.50976 96.983702 
" style="fill:none;stroke:#000000;stroke-width:1.5;"/>
   </g>
   <g id="LineCollection_2">
    <path clip-path="url(#p1b3f5df233)" d="M 279.936 114.83091 
L 279.936 119.205363 
" style="fill:none;stroke:#000000;stroke-width:1.5;"/>
   </g>
   <g id="LineCollection_3">
    <path clip-path="url(#p1b3f5df233)" d="M 316.36224 118.041547 
L 316.36224 124.360873 
" style="fill:none;stroke:#000000;stroke-width:1.5;"/>
   </g>
   <g id="LineCollection_4">
    <path clip-path="url(#p1b3f5df233)" d="M 457.78176 88.836246 
L 457.78176 95.572839 
" style="fill:none;stroke:#000000;stroke-width:1.5;"/>
   </g>
   <g id="LineCollection_5">
    <path clip-path="url(#p1b3f5df233)" d="M 494.208 114.313497 
L 494.208 118.705833 
" style="fill:none;stroke:#000000;stroke-width:1.5;"/>
   </g>
   <g id="LineCollection_6">
    <path clip-path="url(#p1b3f5df233)" d="M 530.63424 116.213417 
L 530.63424 122.95001 
" style="fill:none;stroke:#000000;stroke-width:1.5;"/>
   </g>
   <g id="LineCollection_7">
    <path clip-path="url(#p1b3f5df233)" d="M 672.05376 99.038535 
L 672.05376 109.808195 
" style="fill:none;stroke:#000000;stroke-width:1.5;"/>
   </g>
   <g id="LineCollection_8">
    <path clip-path="url(#p1b3f5df233)" d="M 708.48 116.697725 
L 708.48 125.347544 
" style="fill:none;stroke:#000000;stroke-width:1.5;"/>
   </g>
   <g id="LineCollection_9">
    <path clip-path="url(#p1b3f5df233)" d="M 744.90624 126.415706 
L 744.90624 137.185366 
" style="fill:none;stroke:#000000;stroke-width:1.5;"/>
   </g>
   <g id="LineCollection_10">
    <path clip-path="url(#p1b3f5df233)" d="M 886.32576 92.53122 
L 886.32576 94.948411 
" style="fill:none;stroke:#000000;stroke-width:1.5;"/>
   </g>
   <g id="LineCollection_11">
    <path clip-path="url(#p1b3f5df233)" d="M 922.752 115.265489 
L 922.752 118.014622 
" style="fill:none;stroke:#000000;stroke-width:1.5;"/>
   </g>
   <g id="LineCollection_12">
    <path clip-path="url(#p1b3f5df233)" d="M 959.17824 119.908391 
L 959.17824 122.325583 
" style="fill:none;stroke:#000000;stroke-width:1.5;"/>
   </g>
   <g id="LineCollection_13">
    <path clip-path="url(#p1b3f5df233)" d="M 1100.59776 88.160859 
L 1100.59776 93.164317 
" style="fill:none;stroke:#000000;stroke-width:1.5;"/>
   </g>
   <g id="LineCollection_14">
    <path clip-path="url(#p1b3f5df233)" d="M 1137.024 114.176926 
L 1137.024 117.438323 
" style="fill:none;stroke:#000000;stroke-width:1.5;"/>
   </g>
   <g id="LineCollection_15">
    <path clip-path="url(#p1b3f5df233)" d="M 1173.45024 115.53803 
L 1173.45024 120.541488 
" style="fill:none;stroke:#000000;stroke-width:1.5;"/>
   </g>
   <g id="patch_18">
    <path d="M 172.8 160.189686 
L 172.8 85.7952 
" style="fill:none;stroke:#000000;stroke-linecap:square;stroke-linejoin:miter;stroke-width:0.8;"/>
   </g>
   <g id="patch_19">
    <path d="M 1244.16 160.189686 
L 1244.16 85.7952 
" style="fill:none;stroke:#000000;stroke-linecap:square;stroke-linejoin:miter;stroke-width:0.8;"/>
   </g>
   <g id="patch_20">
    <path d="M 172.8 160.189686 
L 1244.16 160.189686 
" style="fill:none;stroke:#000000;stroke-linecap:square;stroke-linejoin:miter;stroke-width:0.8;"/>
   </g>
   <g id="patch_21">
    <path d="M 172.8 85.7952 
L 1244.16 85.7952 
" style="fill:none;stroke:#000000;stroke-linecap:square;stroke-linejoin:miter;stroke-width:0.8;"/>
   </g>
   <g id="text_10">
    <!-- Switchgrass -->
    <defs>
     <path d="M 59.90625 70.609375 
L 59.90625 55.171875 
Q 53.90625 57.859375 48.1875 59.21875 
Q 42.484375 60.59375 37.40625 60.59375 
Q 30.671875 60.59375 27.4375 58.734375 
Q 24.21875 56.890625 24.21875 52.984375 
Q 24.21875 50.046875 26.390625 48.40625 
Q 28.5625 46.78125 34.28125 45.609375 
L 42.28125 44 
Q 54.4375 41.546875 59.5625 36.5625 
Q 64.703125 31.59375 64.703125 22.40625 
Q 64.703125 10.359375 57.546875 4.46875 
Q 50.390625 -1.421875 35.6875 -1.421875 
Q 28.765625 -1.421875 21.78125 -0.09375 
Q 14.796875 1.21875 7.8125 3.8125 
L 7.8125 19.671875 
Q 14.796875 15.96875 21.3125 14.078125 
Q 27.828125 12.203125 33.890625 12.203125 
Q 40.046875 12.203125 43.3125 14.25 
Q 46.578125 16.3125 46.578125 20.125 
Q 46.578125 23.53125 44.359375 25.390625 
Q 42.140625 27.25 35.5 28.71875 
L 28.21875 30.328125 
Q 17.28125 32.671875 12.21875 37.796875 
Q 7.171875 42.921875 7.171875 51.609375 
Q 7.171875 62.5 14.203125 68.359375 
Q 21.234375 74.21875 34.421875 74.21875 
Q 40.4375 74.21875 46.78125 73.3125 
Q 53.125 72.40625 59.90625 70.609375 
z
" id="DejaVuSans-Bold-83"/>
     <path d="M 3.515625 54.6875 
L 20.515625 54.6875 
L 29.6875 17 
L 38.921875 54.6875 
L 53.515625 54.6875 
L 62.703125 17.390625 
L 71.921875 54.6875 
L 88.921875 54.6875 
L 74.515625 0 
L 55.421875 0 
L 46.1875 37.59375 
L 37.015625 0 
L 17.921875 0 
z
" id="DejaVuSans-Bold-119"/>
     <path d="M 8.40625 54.6875 
L 25.875 54.6875 
L 25.875 0 
L 8.40625 0 
z
M 8.40625 75.984375 
L 25.875 75.984375 
L 25.875 61.71875 
L 8.40625 61.71875 
z
" id="DejaVuSans-Bold-105"/>
     <path d="M 27.484375 70.21875 
L 27.484375 54.6875 
L 45.515625 54.6875 
L 45.515625 42.1875 
L 27.484375 42.1875 
L 27.484375 19 
Q 27.484375 15.1875 29 13.84375 
Q 30.515625 12.5 35.015625 12.5 
L 44 12.5 
L 44 0 
L 29 0 
Q 18.65625 0 14.328125 4.3125 
Q 10.015625 8.640625 10.015625 19 
L 10.015625 42.1875 
L 1.3125 42.1875 
L 1.3125 54.6875 
L 10.015625 54.6875 
L 10.015625 70.21875 
z
" id="DejaVuSans-Bold-116"/>
     <path d="M 52.59375 52.984375 
L 52.59375 38.71875 
Q 49.03125 41.15625 45.4375 42.328125 
Q 41.84375 43.5 37.984375 43.5 
Q 30.671875 43.5 26.59375 39.234375 
Q 22.515625 34.96875 22.515625 27.296875 
Q 22.515625 19.625 26.59375 15.34375 
Q 30.671875 11.078125 37.984375 11.078125 
Q 42.09375 11.078125 45.78125 12.296875 
Q 49.46875 13.53125 52.59375 15.921875 
L 52.59375 1.609375 
Q 48.484375 0.09375 44.265625 -0.65625 
Q 40.046875 -1.421875 35.796875 -1.421875 
Q 21 -1.421875 12.640625 6.171875 
Q 4.296875 13.765625 4.296875 27.296875 
Q 4.296875 40.828125 12.640625 48.40625 
Q 21 56 35.796875 56 
Q 40.09375 56 44.265625 55.25 
Q 48.4375 54.5 52.59375 52.984375 
z
" id="DejaVuSans-Bold-99"/>
     <path d="M 63.375 33.296875 
L 63.375 0 
L 45.796875 0 
L 45.796875 5.421875 
L 45.796875 25.390625 
Q 45.796875 32.5625 45.484375 35.25 
Q 45.171875 37.9375 44.390625 39.203125 
Q 43.359375 40.921875 41.59375 41.875 
Q 39.84375 42.828125 37.59375 42.828125 
Q 32.125 42.828125 29 38.59375 
Q 25.875 34.375 25.875 26.90625 
L 25.875 0 
L 8.40625 0 
L 8.40625 75.984375 
L 25.875 75.984375 
L 25.875 46.6875 
Q 29.828125 51.46875 34.265625 53.734375 
Q 38.71875 56 44.09375 56 
Q 53.5625 56 58.46875 50.1875 
Q 63.375 44.390625 63.375 33.296875 
z
" id="DejaVuSans-Bold-104"/>
     <path d="M 45.609375 9.28125 
Q 42 4.5 37.640625 2.25 
Q 33.296875 0 27.59375 0 
Q 17.578125 0 11.03125 7.875 
Q 4.5 15.765625 4.5 27.984375 
Q 4.5 40.234375 11.03125 48.0625 
Q 17.578125 55.90625 27.59375 55.90625 
Q 33.296875 55.90625 37.640625 53.65625 
Q 42 51.421875 45.609375 46.578125 
L 45.609375 54.6875 
L 63.1875 54.6875 
L 63.1875 5.515625 
Q 63.1875 -7.671875 54.859375 -14.625 
Q 46.53125 -21.578125 30.71875 -21.578125 
Q 25.59375 -21.578125 20.796875 -20.796875 
Q 16.015625 -20.015625 11.1875 -18.40625 
L 11.1875 -4.78125 
Q 15.765625 -7.421875 20.15625 -8.71875 
Q 24.5625 -10.015625 29 -10.015625 
Q 37.59375 -10.015625 41.59375 -6.25 
Q 45.609375 -2.484375 45.609375 5.515625 
z
M 34.078125 43.3125 
Q 28.65625 43.3125 25.625 39.296875 
Q 22.609375 35.296875 22.609375 27.984375 
Q 22.609375 20.453125 25.53125 16.578125 
Q 28.46875 12.703125 34.078125 12.703125 
Q 39.546875 12.703125 42.578125 16.703125 
Q 45.609375 20.703125 45.609375 27.984375 
Q 45.609375 35.296875 42.578125 39.296875 
Q 39.546875 43.3125 34.078125 43.3125 
z
" id="DejaVuSans-Bold-103"/>
     <path d="M 49.03125 39.796875 
Q 46.734375 40.875 44.453125 41.375 
Q 42.1875 41.890625 39.890625 41.890625 
Q 33.15625 41.890625 29.515625 37.5625 
Q 25.875 33.25 25.875 25.203125 
L 25.875 0 
L 8.40625 0 
L 8.40625 54.6875 
L 25.875 54.6875 
L 25.875 45.703125 
Q 29.25 51.078125 33.609375 53.53125 
Q 37.984375 56 44.09375 56 
Q 44.96875 56 45.984375 55.921875 
Q 47.015625 55.859375 48.96875 55.609375 
z
" id="DejaVuSans-Bold-114"/>
     <path d="M 32.90625 24.609375 
Q 27.4375 24.609375 24.671875 22.75 
Q 21.921875 20.90625 21.921875 17.28125 
Q 21.921875 13.96875 24.140625 12.078125 
Q 26.375 10.203125 30.328125 10.203125 
Q 35.25 10.203125 38.625 13.734375 
Q 42 17.28125 42 22.609375 
L 42 24.609375 
z
M 59.625 31.203125 
L 59.625 0 
L 42 0 
L 42 8.109375 
Q 38.484375 3.125 34.078125 0.84375 
Q 29.6875 -1.421875 23.390625 -1.421875 
Q 14.890625 -1.421875 9.59375 3.53125 
Q 4.296875 8.5 4.296875 16.40625 
Q 4.296875 26.03125 10.90625 30.515625 
Q 17.53125 35.015625 31.6875 35.015625 
L 42 35.015625 
L 42 36.375 
Q 42 40.53125 38.71875 42.453125 
Q 35.453125 44.390625 28.515625 44.390625 
Q 22.90625 44.390625 18.0625 43.265625 
Q 13.234375 42.140625 9.078125 39.890625 
L 9.078125 53.21875 
Q 14.703125 54.59375 20.359375 55.296875 
Q 26.03125 56 31.6875 56 
Q 46.484375 56 53.046875 50.171875 
Q 59.625 44.34375 59.625 31.203125 
z
" id="DejaVuSans-Bold-97"/>
     <path d="M 51.125 52.984375 
L 51.125 39.703125 
Q 45.515625 42.046875 40.28125 43.21875 
Q 35.0625 44.390625 30.421875 44.390625 
Q 25.4375 44.390625 23.015625 43.140625 
Q 20.609375 41.890625 20.609375 39.3125 
Q 20.609375 37.203125 22.4375 36.078125 
Q 24.265625 34.96875 29 34.421875 
L 32.078125 33.984375 
Q 45.515625 32.28125 50.140625 28.375 
Q 54.78125 24.46875 54.78125 16.109375 
Q 54.78125 7.375 48.328125 2.96875 
Q 41.890625 -1.421875 29.109375 -1.421875 
Q 23.6875 -1.421875 17.890625 -0.5625 
Q 12.109375 0.296875 6 2 
L 6 15.28125 
Q 11.234375 12.75 16.71875 11.46875 
Q 22.21875 10.203125 27.875 10.203125 
Q 33.015625 10.203125 35.59375 11.609375 
Q 38.1875 13.03125 38.1875 15.828125 
Q 38.1875 18.171875 36.40625 19.3125 
Q 34.625 20.453125 29.296875 21.09375 
L 26.21875 21.484375 
Q 14.546875 22.953125 9.859375 26.90625 
Q 5.171875 30.859375 5.171875 38.921875 
Q 5.171875 47.609375 11.125 51.796875 
Q 17.09375 56 29.390625 56 
Q 34.234375 56 39.546875 55.265625 
Q 44.875 54.546875 51.125 52.984375 
z
" id="DejaVuSans-Bold-115"/>
    </defs>
    <g transform="translate(667.418437 79.7952)scale(0.12 -0.12)">
     <use xlink:href="#DejaVuSans-Bold-83"/>
     <use x="72.021484" xlink:href="#DejaVuSans-Bold-119"/>
     <use x="164.404297" xlink:href="#DejaVuSans-Bold-105"/>
     <use x="198.681641" xlink:href="#DejaVuSans-Bold-116"/>
     <use x="246.484375" xlink:href="#DejaVuSans-Bold-99"/>
     <use x="305.761719" xlink:href="#DejaVuSans-Bold-104"/>
     <use x="376.953125" xlink:href="#DejaVuSans-Bold-103"/>
     <use x="448.535156" xlink:href="#DejaVuSans-Bold-114"/>
     <use x="497.851562" xlink:href="#DejaVuSans-Bold-97"/>
     <use x="565.332031" xlink:href="#DejaVuSans-Bold-115"/>
     <use x="624.853516" xlink:href="#DejaVuSans-Bold-115"/>
    </g>
   </g>
  </g>
  <g id="axes_2">
   <g id="patch_22">
    <path d="M 172.8 279.220865 
L 1244.16 279.220865 
L 1244.16 204.826378 
L 172.8 204.826378 
z
" style="fill:#ffffff;"/>
   </g>
   <g id="patch_23">
    <path clip-path="url(#p759542a180)" d="M 226.368 242.023622 
L 262.08 242.023622 
L 262.08 221.086524 
L 226.368 221.086524 
z
" style="fill:#1f77b4;"/>
   </g>
   <g id="patch_24">
    <path clip-path="url(#p759542a180)" d="M 440.64 242.023622 
L 476.352 242.023622 
L 476.352 218.62378 
L 440.64 218.62378 
z
" style="fill:#1f77b4;"/>
   </g>
   <g id="patch_25">
    <path clip-path="url(#p759542a180)" d="M 654.912 242.023622 
L 690.624 242.023622 
L 690.624 231.975874 
L 654.912 231.975874 
z
" style="fill:#1f77b4;"/>
   </g>
   <g id="patch_26">
    <path clip-path="url(#p759542a180)" d="M 869.184 242.023622 
L 904.896 242.023622 
L 904.896 223.074058 
L 869.184 223.074058 
z
" style="fill:#1f77b4;"/>
   </g>
   <g id="patch_27">
    <path clip-path="url(#p759542a180)" d="M 1083.456 242.023622 
L 1119.168 242.023622 
L 1119.168 218.631649 
L 1083.456 218.631649 
z
" style="fill:#1f77b4;"/>
   </g>
   <g id="patch_28">
    <path clip-path="url(#p759542a180)" d="M 262.08 242.023622 
L 297.792 242.023622 
L 297.792 242.936413 
L 262.08 242.936413 
z
" style="fill:#ff7f0e;"/>
   </g>
   <g id="patch_29">
    <path clip-path="url(#p759542a180)" d="M 476.352 242.023622 
L 512.064 242.023622 
L 512.064 242.110348 
L 476.352 242.110348 
z
" style="fill:#ff7f0e;"/>
   </g>
   <g id="patch_30">
    <path clip-path="url(#p759542a180)" d="M 690.624 242.023622 
L 726.336 242.023622 
L 726.336 246.811021 
L 690.624 246.811021 
z
" style="fill:#ff7f0e;"/>
   </g>
   <g id="patch_31">
    <path clip-path="url(#p759542a180)" d="M 904.896 242.023622 
L 940.608 242.023622 
L 940.608 243.629856 
L 904.896 243.629856 
z
" style="fill:#ff7f0e;"/>
   </g>
   <g id="patch_32">
    <path clip-path="url(#p759542a180)" d="M 1119.168 242.023622 
L 1154.88 242.023622 
L 1154.88 242.164141 
L 1119.168 242.164141 
z
" style="fill:#ff7f0e;"/>
   </g>
   <g id="patch_33">
    <path clip-path="url(#p759542a180)" d="M 297.792 242.023622 
L 333.504 242.023622 
L 333.504 248.463695 
L 297.792 248.463695 
z
" style="fill:#2ca02c;"/>
   </g>
   <g id="patch_34">
    <path clip-path="url(#p759542a180)" d="M 512.064 242.023622 
L 547.776 242.023622 
L 547.776 246.000951 
L 512.064 246.000951 
z
" style="fill:#2ca02c;"/>
   </g>
   <g id="patch_35">
    <path clip-path="url(#p759542a180)" d="M 726.336 242.023622 
L 762.048 242.023622 
L 762.048 259.353045 
L 726.336 259.353045 
z
" style="fill:#2ca02c;"/>
   </g>
   <g id="patch_36">
    <path clip-path="url(#p759542a180)" d="M 940.608 242.023622 
L 976.32 242.023622 
L 976.32 250.451229 
L 940.608 250.451229 
z
" style="fill:#2ca02c;"/>
   </g>
   <g id="patch_37">
    <path clip-path="url(#p759542a180)" d="M 1154.88 242.023622 
L 1190.592 242.023622 
L 1190.592 246.00882 
L 1154.88 246.00882 
z
" style="fill:#2ca02c;"/>
   </g>
   <g id="matplotlib.axis_3">
    <g id="xtick_6">
     <g id="line2d_9">
      <g>
       <use style="stroke:#000000;stroke-width:0.8;" x="279.936" xlink:href="#mb4b51a97b5" y="279.220865"/>
      </g>
     </g>
     <g id="text_11">
      <!-- USA -->
      <g transform="translate(267.630375 295.33899)scale(0.12 -0.12)">
       <use xlink:href="#DejaVuSans-85"/>
       <use x="73.193359" xlink:href="#DejaVuSans-83"/>
       <use x="136.685547" xlink:href="#DejaVuSans-65"/>
      </g>
     </g>
    </g>
    <g id="xtick_7">
     <g id="line2d_10">
      <g>
       <use style="stroke:#000000;stroke-width:0.8;" x="494.208" xlink:href="#mb4b51a97b5" y="279.220865"/>
      </g>
     </g>
     <g id="text_12">
      <!-- EU -->
      <g transform="translate(486.0255 295.33899)scale(0.12 -0.12)">
       <use xlink:href="#DejaVuSans-69"/>
       <use x="63.183594" xlink:href="#DejaVuSans-85"/>
      </g>
     </g>
    </g>
    <g id="xtick_8">
     <g id="line2d_11">
      <g>
       <use style="stroke:#000000;stroke-width:0.8;" x="708.48" xlink:href="#mb4b51a97b5" y="279.220865"/>
      </g>
     </g>
     <g id="text_13">
      <!-- India  -->
      <g transform="translate(691.847813 295.33899)scale(0.12 -0.12)">
       <use xlink:href="#DejaVuSans-73"/>
       <use x="29.492188" xlink:href="#DejaVuSans-110"/>
       <use x="92.871094" xlink:href="#DejaVuSans-100"/>
       <use x="156.347656" xlink:href="#DejaVuSans-105"/>
       <use x="184.130859" xlink:href="#DejaVuSans-97"/>
       <use x="245.410156" xlink:href="#DejaVuSans-32"/>
      </g>
     </g>
    </g>
    <g id="xtick_9">
     <g id="line2d_12">
      <g>
       <use style="stroke:#000000;stroke-width:0.8;" x="922.752" xlink:href="#mb4b51a97b5" y="279.220865"/>
      </g>
     </g>
     <g id="text_14">
      <!-- Brazil -->
      <g transform="translate(906.009187 295.33899)scale(0.12 -0.12)">
       <use xlink:href="#DejaVuSans-66"/>
       <use x="68.603516" xlink:href="#DejaVuSans-114"/>
       <use x="109.716797" xlink:href="#DejaVuSans-97"/>
       <use x="170.996094" xlink:href="#DejaVuSans-122"/>
       <use x="223.486328" xlink:href="#DejaVuSans-105"/>
       <use x="251.269531" xlink:href="#DejaVuSans-108"/>
      </g>
     </g>
    </g>
    <g id="xtick_10">
     <g id="line2d_13">
      <g>
       <use style="stroke:#000000;stroke-width:0.8;" x="1137.024" xlink:href="#mb4b51a97b5" y="279.220865"/>
      </g>
     </g>
     <g id="text_15">
      <!-- UK -->
      <g transform="translate(1128.698062 295.33899)scale(0.12 -0.12)">
       <use xlink:href="#DejaVuSans-85"/>
       <use x="73.193359" xlink:href="#DejaVuSans-75"/>
      </g>
     </g>
    </g>
   </g>
   <g id="matplotlib.axis_4">
    <g id="ytick_4">
     <g id="line2d_14">
      <g>
       <use style="stroke:#000000;stroke-width:0.8;" x="172.8" xlink:href="#m71dfe3234e" y="270.636886"/>
      </g>
     </g>
     <g id="text_16">
      <!-- −10000 -->
      <g transform="translate(117.569375 275.195948)scale(0.12 -0.12)">
       <use xlink:href="#DejaVuSans-8722"/>
       <use x="83.789062" xlink:href="#DejaVuSans-49"/>
       <use x="147.412109" xlink:href="#DejaVuSans-48"/>
       <use x="211.035156" xlink:href="#DejaVuSans-48"/>
       <use x="274.658203" xlink:href="#DejaVuSans-48"/>
       <use x="338.28125" xlink:href="#DejaVuSans-48"/>
      </g>
     </g>
    </g>
    <g id="ytick_5">
     <g id="line2d_15">
      <g>
       <use style="stroke:#000000;stroke-width:0.8;" x="172.8" xlink:href="#m71dfe3234e" y="242.023622"/>
      </g>
     </g>
     <g id="text_17">
      <!-- 0 -->
      <g transform="translate(158.165 246.582684)scale(0.12 -0.12)">
       <use xlink:href="#DejaVuSans-48"/>
      </g>
     </g>
    </g>
    <g id="ytick_6">
     <g id="line2d_16">
      <g>
       <use style="stroke:#000000;stroke-width:0.8;" x="172.8" xlink:href="#m71dfe3234e" y="213.410358"/>
      </g>
     </g>
     <g id="text_18">
      <!-- 10000 -->
      <g transform="translate(127.625 217.96942)scale(0.12 -0.12)">
       <use xlink:href="#DejaVuSans-49"/>
       <use x="63.623047" xlink:href="#DejaVuSans-48"/>
       <use x="127.246094" xlink:href="#DejaVuSans-48"/>
       <use x="190.869141" xlink:href="#DejaVuSans-48"/>
       <use x="254.492188" xlink:href="#DejaVuSans-48"/>
      </g>
     </g>
    </g>
    <g id="text_19">
     <!-- NEB $(MJ/t_{DM})$ -->
     <g transform="translate(111.049375 279.403622)rotate(-90)scale(0.12 -0.12)">
      <use transform="translate(0 0.125)" xlink:href="#DejaVuSans-78"/>
      <use transform="translate(74.804688 0.125)" xlink:href="#DejaVuSans-69"/>
      <use transform="translate(137.988281 0.125)" xlink:href="#DejaVuSans-66"/>
      <use transform="translate(206.591797 0.125)" xlink:href="#DejaVuSans-32"/>
      <use transform="translate(238.378906 0.125)" xlink:href="#DejaVuSans-40"/>
      <use transform="translate(277.392578 0.125)" xlink:href="#DejaVuSans-Oblique-77"/>
      <use transform="translate(363.671875 0.125)" xlink:href="#DejaVuSans-Oblique-74"/>
      <use transform="translate(393.164062 0.125)" xlink:href="#DejaVuSans-47"/>
      <use transform="translate(426.855469 0.125)" xlink:href="#DejaVuSans-Oblique-116"/>
      <use transform="translate(466.064453 -16.28125)scale(0.7)" xlink:href="#DejaVuSans-Oblique-68"/>
      <use transform="translate(519.96582 -16.28125)scale(0.7)" xlink:href="#DejaVuSans-Oblique-77"/>
      <use transform="translate(583.095703 0.125)" xlink:href="#DejaVuSans-41"/>
     </g>
    </g>
   </g>
   <g id="LineCollection_16">
    <path clip-path="url(#p759542a180)" d="M 243.50976 215.306587 
L 243.50976 227.397866 
" style="fill:none;stroke:#000000;stroke-width:1.5;"/>
   </g>
   <g id="LineCollection_17">
    <path clip-path="url(#p759542a180)" d="M 279.936 237.525674 
L 279.936 249.370964 
" style="fill:none;stroke:#000000;stroke-width:1.5;"/>
   </g>
   <g id="LineCollection_18">
    <path clip-path="url(#p759542a180)" d="M 316.36224 242.683758 
L 316.36224 254.775037 
" style="fill:none;stroke:#000000;stroke-width:1.5;"/>
   </g>
   <g id="LineCollection_19">
    <path clip-path="url(#p759542a180)" d="M 457.78176 213.134955 
L 457.78176 224.870399 
" style="fill:none;stroke:#000000;stroke-width:1.5;"/>
   </g>
   <g id="LineCollection_20">
    <path clip-path="url(#p759542a180)" d="M 494.208 236.906311 
L 494.208 248.350043 
" style="fill:none;stroke:#000000;stroke-width:1.5;"/>
   </g>
   <g id="LineCollection_21">
    <path clip-path="url(#p759542a180)" d="M 530.63424 240.512126 
L 530.63424 252.24757 
" style="fill:none;stroke:#000000;stroke-width:1.5;"/>
   </g>
   <g id="LineCollection_22">
    <path clip-path="url(#p759542a180)" d="M 672.05376 224.618574 
L 672.05376 239.738423 
" style="fill:none;stroke:#000000;stroke-width:1.5;"/>
   </g>
   <g id="LineCollection_23">
    <path clip-path="url(#p759542a180)" d="M 708.48 239.58311 
L 708.48 255.101629 
" style="fill:none;stroke:#000000;stroke-width:1.5;"/>
   </g>
   <g id="LineCollection_24">
    <path clip-path="url(#p759542a180)" d="M 744.90624 251.995745 
L 744.90624 267.115594 
" style="fill:none;stroke:#000000;stroke-width:1.5;"/>
   </g>
   <g id="LineCollection_25">
    <path clip-path="url(#p759542a180)" d="M 886.32576 217.571957 
L 886.32576 229.021239 
" style="fill:none;stroke:#000000;stroke-width:1.5;"/>
   </g>
   <g id="LineCollection_26">
    <path clip-path="url(#p759542a180)" d="M 922.752 238.060685 
L 922.752 250.07156 
" style="fill:none;stroke:#000000;stroke-width:1.5;"/>
   </g>
   <g id="LineCollection_27">
    <path clip-path="url(#p759542a180)" d="M 959.17824 244.949128 
L 959.17824 256.39841 
" style="fill:none;stroke:#000000;stroke-width:1.5;"/>
   </g>
   <g id="LineCollection_28">
    <path clip-path="url(#p759542a180)" d="M 1100.59776 212.212521 
L 1100.59776 231.552683 
" style="fill:none;stroke:#000000;stroke-width:1.5;"/>
   </g>
   <g id="LineCollection_29">
    <path clip-path="url(#p759542a180)" d="M 1137.024 236.700925 
L 1137.024 252.172918 
" style="fill:none;stroke:#000000;stroke-width:1.5;"/>
   </g>
   <g id="LineCollection_30">
    <path clip-path="url(#p759542a180)" d="M 1173.45024 239.589692 
L 1173.45024 258.929855 
" style="fill:none;stroke:#000000;stroke-width:1.5;"/>
   </g>
   <g id="patch_38">
    <path d="M 172.8 279.220865 
L 172.8 204.826378 
" style="fill:none;stroke:#000000;stroke-linecap:square;stroke-linejoin:miter;stroke-width:0.8;"/>
   </g>
   <g id="patch_39">
    <path d="M 1244.16 279.220865 
L 1244.16 204.826378 
" style="fill:none;stroke:#000000;stroke-linecap:square;stroke-linejoin:miter;stroke-width:0.8;"/>
   </g>
   <g id="patch_40">
    <path d="M 172.8 279.220865 
L 1244.16 279.220865 
" style="fill:none;stroke:#000000;stroke-linecap:square;stroke-linejoin:miter;stroke-width:0.8;"/>
   </g>
   <g id="patch_41">
    <path d="M 172.8 204.826378 
L 1244.16 204.826378 
" style="fill:none;stroke:#000000;stroke-linecap:square;stroke-linejoin:miter;stroke-width:0.8;"/>
   </g>
   <g id="text_20">
    <!-- Miscanthus -->
    <defs>
     <path d="M 9.1875 72.90625 
L 33.109375 72.90625 
L 49.703125 33.890625 
L 66.40625 72.90625 
L 90.28125 72.90625 
L 90.28125 0 
L 72.515625 0 
L 72.515625 53.328125 
L 55.71875 14.015625 
L 43.796875 14.015625 
L 27 53.328125 
L 27 0 
L 9.1875 0 
z
" id="DejaVuSans-Bold-77"/>
     <path d="M 63.375 33.296875 
L 63.375 0 
L 45.796875 0 
L 45.796875 5.421875 
L 45.796875 25.484375 
Q 45.796875 32.5625 45.484375 35.25 
Q 45.171875 37.9375 44.390625 39.203125 
Q 43.359375 40.921875 41.59375 41.875 
Q 39.84375 42.828125 37.59375 42.828125 
Q 32.125 42.828125 29 38.59375 
Q 25.875 34.375 25.875 26.90625 
L 25.875 0 
L 8.40625 0 
L 8.40625 54.6875 
L 25.875 54.6875 
L 25.875 46.6875 
Q 29.828125 51.46875 34.265625 53.734375 
Q 38.71875 56 44.09375 56 
Q 53.5625 56 58.46875 50.1875 
Q 63.375 44.390625 63.375 33.296875 
z
" id="DejaVuSans-Bold-110"/>
     <path d="M 7.8125 21.296875 
L 7.8125 54.6875 
L 25.390625 54.6875 
L 25.390625 49.21875 
Q 25.390625 44.78125 25.34375 38.0625 
Q 25.296875 31.34375 25.296875 29.109375 
Q 25.296875 22.515625 25.640625 19.609375 
Q 25.984375 16.703125 26.8125 15.375 
Q 27.875 13.671875 29.609375 12.734375 
Q 31.34375 11.8125 33.59375 11.8125 
Q 39.0625 11.8125 42.1875 16.015625 
Q 45.3125 20.21875 45.3125 27.6875 
L 45.3125 54.6875 
L 62.796875 54.6875 
L 62.796875 0 
L 45.3125 0 
L 45.3125 7.90625 
Q 41.359375 3.125 36.9375 0.84375 
Q 32.515625 -1.421875 27.203125 -1.421875 
Q 17.71875 -1.421875 12.765625 4.390625 
Q 7.8125 10.203125 7.8125 21.296875 
z
" id="DejaVuSans-Bold-117"/>
    </defs>
    <g transform="translate(670.022812 198.826378)scale(0.12 -0.12)">
     <use xlink:href="#DejaVuSans-Bold-77"/>
     <use x="99.511719" xlink:href="#DejaVuSans-Bold-105"/>
     <use x="133.789062" xlink:href="#DejaVuSans-Bold-115"/>
     <use x="193.310547" xlink:href="#DejaVuSans-Bold-99"/>
     <use x="252.587891" xlink:href="#DejaVuSans-Bold-97"/>
     <use x="320.068359" xlink:href="#DejaVuSans-Bold-110"/>
     <use x="391.259766" xlink:href="#DejaVuSans-Bold-116"/>
     <use x="439.0625" xlink:href="#DejaVuSans-Bold-104"/>
     <use x="510.253906" xlink:href="#DejaVuSans-Bold-117"/>
     <use x="581.445312" xlink:href="#DejaVuSans-Bold-115"/>
    </g>
   </g>
  </g>
  <g id="axes_3">
   <g id="patch_42">
    <path d="M 172.8 398.252043 
L 1244.16 398.252043 
L 1244.16 323.857557 
L 172.8 323.857557 
z
" style="fill:#ffffff;"/>
   </g>
   <g id="patch_43">
    <path clip-path="url(#p6b300698f0)" d="M 226.368 361.0548 
L 262.08 361.0548 
L 262.08 330.000195 
L 226.368 330.000195 
z
" style="fill:#1f77b4;"/>
   </g>
   <g id="patch_44">
    <path clip-path="url(#p6b300698f0)" d="M 440.64 361.0548 
L 476.352 361.0548 
L 476.352 328.216816 
L 440.64 328.216816 
z
" style="fill:#1f77b4;"/>
   </g>
   <g id="patch_45">
    <path clip-path="url(#p6b300698f0)" d="M 654.912 361.0548 
L 690.624 361.0548 
L 690.624 336.261092 
L 654.912 336.261092 
z
" style="fill:#1f77b4;"/>
   </g>
   <g id="patch_46">
    <path clip-path="url(#p6b300698f0)" d="M 869.184 361.0548 
L 904.896 361.0548 
L 904.896 331.657647 
L 869.184 331.657647 
z
" style="fill:#1f77b4;"/>
   </g>
   <g id="patch_47">
    <path clip-path="url(#p6b300698f0)" d="M 1083.456 361.0548 
L 1119.168 361.0548 
L 1119.168 327.606667 
L 1083.456 327.606667 
z
" style="fill:#1f77b4;"/>
   </g>
   <g id="patch_48">
    <path clip-path="url(#p6b300698f0)" d="M 262.08 361.0548 
L 297.792 361.0548 
L 297.792 355.641829 
L 262.08 355.641829 
z
" style="fill:#ff7f0e;"/>
   </g>
   <g id="patch_49">
    <path clip-path="url(#p6b300698f0)" d="M 476.352 361.0548 
L 512.064 361.0548 
L 512.064 355.01743 
L 476.352 355.01743 
z
" style="fill:#ff7f0e;"/>
   </g>
   <g id="patch_50">
    <path clip-path="url(#p6b300698f0)" d="M 690.624 361.0548 
L 726.336 361.0548 
L 726.336 357.833147 
L 690.624 357.833147 
z
" style="fill:#ff7f0e;"/>
   </g>
   <g id="patch_51">
    <path clip-path="url(#p6b300698f0)" d="M 904.896 361.0548 
L 940.608 361.0548 
L 940.608 356.221934 
L 904.896 356.221934 
z
" style="fill:#ff7f0e;"/>
   </g>
   <g id="patch_52">
    <path clip-path="url(#p6b300698f0)" d="M 1119.168 361.0548 
L 1154.88 361.0548 
L 1154.88 354.804089 
L 1119.168 354.804089 
z
" style="fill:#ff7f0e;"/>
   </g>
   <g id="patch_53">
    <path clip-path="url(#p6b300698f0)" d="M 297.792 361.0548 
L 333.504 361.0548 
L 333.504 358.567678 
L 297.792 358.567678 
z
" style="fill:#2ca02c;"/>
   </g>
   <g id="patch_54">
    <path clip-path="url(#p6b300698f0)" d="M 512.064 361.0548 
L 547.776 361.0548 
L 547.776 356.784299 
L 512.064 356.784299 
z
" style="fill:#2ca02c;"/>
   </g>
   <g id="patch_55">
    <path clip-path="url(#p6b300698f0)" d="M 726.336 361.0548 
L 762.048 361.0548 
L 762.048 364.828575 
L 726.336 364.828575 
z
" style="fill:#2ca02c;"/>
   </g>
   <g id="patch_56">
    <path clip-path="url(#p6b300698f0)" d="M 940.608 361.0548 
L 976.32 361.0548 
L 976.32 360.22513 
L 940.608 360.22513 
z
" style="fill:#2ca02c;"/>
   </g>
   <g id="patch_57">
    <path clip-path="url(#p6b300698f0)" d="M 1154.88 361.0548 
L 1190.592 361.0548 
L 1190.592 356.17415 
L 1154.88 356.17415 
z
" style="fill:#2ca02c;"/>
   </g>
   <g id="matplotlib.axis_5">
    <g id="xtick_11">
     <g id="line2d_17">
      <g>
       <use style="stroke:#000000;stroke-width:0.8;" x="279.936" xlink:href="#mb4b51a97b5" y="398.252043"/>
      </g>
     </g>
     <g id="text_21">
      <!-- USA -->
      <g transform="translate(267.630375 414.370168)scale(0.12 -0.12)">
       <use xlink:href="#DejaVuSans-85"/>
       <use x="73.193359" xlink:href="#DejaVuSans-83"/>
       <use x="136.685547" xlink:href="#DejaVuSans-65"/>
      </g>
     </g>
    </g>
    <g id="xtick_12">
     <g id="line2d_18">
      <g>
       <use style="stroke:#000000;stroke-width:0.8;" x="494.208" xlink:href="#mb4b51a97b5" y="398.252043"/>
      </g>
     </g>
     <g id="text_22">
      <!-- EU -->
      <g transform="translate(486.0255 414.370168)scale(0.12 -0.12)">
       <use xlink:href="#DejaVuSans-69"/>
       <use x="63.183594" xlink:href="#DejaVuSans-85"/>
      </g>
     </g>
    </g>
    <g id="xtick_13">
     <g id="line2d_19">
      <g>
       <use style="stroke:#000000;stroke-width:0.8;" x="708.48" xlink:href="#mb4b51a97b5" y="398.252043"/>
      </g>
     </g>
     <g id="text_23">
      <!-- India  -->
      <g transform="translate(691.847813 414.370168)scale(0.12 -0.12)">
       <use xlink:href="#DejaVuSans-73"/>
       <use x="29.492188" xlink:href="#DejaVuSans-110"/>
       <use x="92.871094" xlink:href="#DejaVuSans-100"/>
       <use x="156.347656" xlink:href="#DejaVuSans-105"/>
       <use x="184.130859" xlink:href="#DejaVuSans-97"/>
       <use x="245.410156" xlink:href="#DejaVuSans-32"/>
      </g>
     </g>
    </g>
    <g id="xtick_14">
     <g id="line2d_20">
      <g>
       <use style="stroke:#000000;stroke-width:0.8;" x="922.752" xlink:href="#mb4b51a97b5" y="398.252043"/>
      </g>
     </g>
     <g id="text_24">
      <!-- Brazil -->
      <g transform="translate(906.009187 414.370168)scale(0.12 -0.12)">
       <use xlink:href="#DejaVuSans-66"/>
       <use x="68.603516" xlink:href="#DejaVuSans-114"/>
       <use x="109.716797" xlink:href="#DejaVuSans-97"/>
       <use x="170.996094" xlink:href="#DejaVuSans-122"/>
       <use x="223.486328" xlink:href="#DejaVuSans-105"/>
       <use x="251.269531" xlink:href="#DejaVuSans-108"/>
      </g>
     </g>
    </g>
    <g id="xtick_15">
     <g id="line2d_21">
      <g>
       <use style="stroke:#000000;stroke-width:0.8;" x="1137.024" xlink:href="#mb4b51a97b5" y="398.252043"/>
      </g>
     </g>
     <g id="text_25">
      <!-- UK -->
      <g transform="translate(1128.698062 414.370168)scale(0.12 -0.12)">
       <use xlink:href="#DejaVuSans-85"/>
       <use x="73.193359" xlink:href="#DejaVuSans-75"/>
      </g>
     </g>
    </g>
   </g>
   <g id="matplotlib.axis_6">
    <g id="ytick_7">
     <g id="line2d_22">
      <g>
       <use style="stroke:#000000;stroke-width:0.8;" x="172.8" xlink:href="#m71dfe3234e" y="389.668064"/>
      </g>
     </g>
     <g id="text_26">
      <!-- −10000 -->
      <g transform="translate(117.569375 394.227127)scale(0.12 -0.12)">
       <use xlink:href="#DejaVuSans-8722"/>
       <use x="83.789062" xlink:href="#DejaVuSans-49"/>
       <use x="147.412109" xlink:href="#DejaVuSans-48"/>
       <use x="211.035156" xlink:href="#DejaVuSans-48"/>
       <use x="274.658203" xlink:href="#DejaVuSans-48"/>
       <use x="338.28125" xlink:href="#DejaVuSans-48"/>
      </g>
     </g>
    </g>
    <g id="ytick_8">
     <g id="line2d_23">
      <g>
       <use style="stroke:#000000;stroke-width:0.8;" x="172.8" xlink:href="#m71dfe3234e" y="361.0548"/>
      </g>
     </g>
     <g id="text_27">
      <!-- 0 -->
      <g transform="translate(158.165 365.613862)scale(0.12 -0.12)">
       <use xlink:href="#DejaVuSans-48"/>
      </g>
     </g>
    </g>
    <g id="ytick_9">
     <g id="line2d_24">
      <g>
       <use style="stroke:#000000;stroke-width:0.8;" x="172.8" xlink:href="#m71dfe3234e" y="332.441536"/>
      </g>
     </g>
     <g id="text_28">
      <!-- 10000 -->
      <g transform="translate(127.625 337.000598)scale(0.12 -0.12)">
       <use xlink:href="#DejaVuSans-49"/>
       <use x="63.623047" xlink:href="#DejaVuSans-48"/>
       <use x="127.246094" xlink:href="#DejaVuSans-48"/>
       <use x="190.869141" xlink:href="#DejaVuSans-48"/>
       <use x="254.492188" xlink:href="#DejaVuSans-48"/>
      </g>
     </g>
    </g>
    <g id="text_29">
     <!-- NEB $(MJ/t_{DM})$ -->
     <g transform="translate(111.049375 398.4348)rotate(-90)scale(0.12 -0.12)">
      <use transform="translate(0 0.125)" xlink:href="#DejaVuSans-78"/>
      <use transform="translate(74.804688 0.125)" xlink:href="#DejaVuSans-69"/>
      <use transform="translate(137.988281 0.125)" xlink:href="#DejaVuSans-66"/>
      <use transform="translate(206.591797 0.125)" xlink:href="#DejaVuSans-32"/>
      <use transform="translate(238.378906 0.125)" xlink:href="#DejaVuSans-40"/>
      <use transform="translate(277.392578 0.125)" xlink:href="#DejaVuSans-Oblique-77"/>
      <use transform="translate(363.671875 0.125)" xlink:href="#DejaVuSans-Oblique-74"/>
      <use transform="translate(393.164062 0.125)" xlink:href="#DejaVuSans-47"/>
      <use transform="translate(426.855469 0.125)" xlink:href="#DejaVuSans-Oblique-116"/>
      <use transform="translate(466.064453 -16.28125)scale(0.7)" xlink:href="#DejaVuSans-Oblique-68"/>
      <use transform="translate(519.96582 -16.28125)scale(0.7)" xlink:href="#DejaVuSans-Oblique-77"/>
      <use transform="translate(583.095703 0.125)" xlink:href="#DejaVuSans-41"/>
     </g>
    </g>
   </g>
   <g id="LineCollection_31">
    <path clip-path="url(#p6b300698f0)" d="M 243.50976 328.479972 
L 243.50976 331.520361 
" style="fill:none;stroke:#000000;stroke-width:1.5;"/>
   </g>
   <g id="LineCollection_32">
    <path clip-path="url(#p6b300698f0)" d="M 279.936 353.952959 
L 279.936 357.631223 
" style="fill:none;stroke:#000000;stroke-width:1.5;"/>
   </g>
   <g id="LineCollection_33">
    <path clip-path="url(#p6b300698f0)" d="M 316.36224 357.047455 
L 316.36224 360.087843 
" style="fill:none;stroke:#000000;stroke-width:1.5;"/>
   </g>
   <g id="LineCollection_34">
    <path clip-path="url(#p6b300698f0)" d="M 457.78176 326.69914 
L 457.78176 329.739557 
" style="fill:none;stroke:#000000;stroke-width:1.5;"/>
   </g>
   <g id="LineCollection_35">
    <path clip-path="url(#p6b300698f0)" d="M 494.208 353.43546 
L 494.208 356.840581 
" style="fill:none;stroke:#000000;stroke-width:1.5;"/>
   </g>
   <g id="LineCollection_36">
    <path clip-path="url(#p6b300698f0)" d="M 530.63424 355.266623 
L 530.63424 358.30704 
" style="fill:none;stroke:#000000;stroke-width:1.5;"/>
   </g>
   <g id="LineCollection_37">
    <path clip-path="url(#p6b300698f0)" d="M 672.05376 334.740898 
L 672.05376 337.781286 
" style="fill:none;stroke:#000000;stroke-width:1.5;"/>
   </g>
   <g id="LineCollection_38">
    <path clip-path="url(#p6b300698f0)" d="M 708.48 355.297954 
L 708.48 360.442419 
" style="fill:none;stroke:#000000;stroke-width:1.5;"/>
   </g>
   <g id="LineCollection_39">
    <path clip-path="url(#p6b300698f0)" d="M 744.90624 363.308381 
L 744.90624 366.348769 
" style="fill:none;stroke:#000000;stroke-width:1.5;"/>
   </g>
   <g id="LineCollection_40">
    <path clip-path="url(#p6b300698f0)" d="M 886.32576 330.137424 
L 886.32576 333.177841 
" style="fill:none;stroke:#000000;stroke-width:1.5;"/>
   </g>
   <g id="LineCollection_41">
    <path clip-path="url(#p6b300698f0)" d="M 922.752 354.34416 
L 922.752 358.373079 
" style="fill:none;stroke:#000000;stroke-width:1.5;"/>
   </g>
   <g id="LineCollection_42">
    <path clip-path="url(#p6b300698f0)" d="M 959.17824 358.704907 
L 959.17824 361.745324 
" style="fill:none;stroke:#000000;stroke-width:1.5;"/>
   </g>
   <g id="LineCollection_43">
    <path clip-path="url(#p6b300698f0)" d="M 1100.59776 326.086444 
L 1100.59776 329.126832 
" style="fill:none;stroke:#000000;stroke-width:1.5;"/>
   </g>
   <g id="LineCollection_44">
    <path clip-path="url(#p6b300698f0)" d="M 1137.024 353.304125 
L 1137.024 356.565465 
" style="fill:none;stroke:#000000;stroke-width:1.5;"/>
   </g>
   <g id="LineCollection_45">
    <path clip-path="url(#p6b300698f0)" d="M 1173.45024 354.653927 
L 1173.45024 357.694315 
" style="fill:none;stroke:#000000;stroke-width:1.5;"/>
   </g>
   <g id="patch_58">
    <path d="M 172.8 398.252043 
L 172.8 323.857557 
" style="fill:none;stroke:#000000;stroke-linecap:square;stroke-linejoin:miter;stroke-width:0.8;"/>
   </g>
   <g id="patch_59">
    <path d="M 1244.16 398.252043 
L 1244.16 323.857557 
" style="fill:none;stroke:#000000;stroke-linecap:square;stroke-linejoin:miter;stroke-width:0.8;"/>
   </g>
   <g id="patch_60">
    <path d="M 172.8 398.252043 
L 1244.16 398.252043 
" style="fill:none;stroke:#000000;stroke-linecap:square;stroke-linejoin:miter;stroke-width:0.8;"/>
   </g>
   <g id="patch_61">
    <path d="M 172.8 323.857557 
L 1244.16 323.857557 
" style="fill:none;stroke:#000000;stroke-linecap:square;stroke-linejoin:miter;stroke-width:0.8;"/>
   </g>
   <g id="text_30">
    <!-- Wheat Straw -->
    <defs>
     <path d="M 2.984375 72.90625 
L 21 72.90625 
L 33.59375 19.921875 
L 46.09375 72.90625 
L 64.203125 72.90625 
L 76.703125 19.921875 
L 89.3125 72.90625 
L 107.171875 72.90625 
L 89.984375 0 
L 68.3125 0 
L 55.078125 55.421875 
L 42 0 
L 20.3125 0 
z
" id="DejaVuSans-Bold-87"/>
     <path d="M 62.984375 27.484375 
L 62.984375 22.515625 
L 22.125 22.515625 
Q 22.75 16.359375 26.5625 13.28125 
Q 30.375 10.203125 37.203125 10.203125 
Q 42.71875 10.203125 48.5 11.84375 
Q 54.296875 13.484375 60.40625 16.796875 
L 60.40625 3.328125 
Q 54.203125 0.984375 48 -0.21875 
Q 41.796875 -1.421875 35.59375 -1.421875 
Q 20.75 -1.421875 12.515625 6.125 
Q 4.296875 13.671875 4.296875 27.296875 
Q 4.296875 40.671875 12.375 48.328125 
Q 20.453125 56 34.625 56 
Q 47.515625 56 55.25 48.234375 
Q 62.984375 40.484375 62.984375 27.484375 
z
M 45.015625 33.296875 
Q 45.015625 38.28125 42.109375 41.328125 
Q 39.203125 44.390625 34.515625 44.390625 
Q 29.4375 44.390625 26.265625 41.53125 
Q 23.09375 38.671875 22.3125 33.296875 
z
" id="DejaVuSans-Bold-101"/>
     <path id="DejaVuSans-Bold-32"/>
    </defs>
    <g transform="translate(664.775625 317.857557)scale(0.12 -0.12)">
     <use xlink:href="#DejaVuSans-Bold-87"/>
     <use x="110.302734" xlink:href="#DejaVuSans-Bold-104"/>
     <use x="181.494141" xlink:href="#DejaVuSans-Bold-101"/>
     <use x="249.316406" xlink:href="#DejaVuSans-Bold-97"/>
     <use x="316.796875" xlink:href="#DejaVuSans-Bold-116"/>
     <use x="364.599609" xlink:href="#DejaVuSans-Bold-32"/>
     <use x="399.414062" xlink:href="#DejaVuSans-Bold-83"/>
     <use x="471.435547" xlink:href="#DejaVuSans-Bold-116"/>
     <use x="519.238281" xlink:href="#DejaVuSans-Bold-114"/>
     <use x="568.554688" xlink:href="#DejaVuSans-Bold-97"/>
     <use x="636.035156" xlink:href="#DejaVuSans-Bold-119"/>
    </g>
   </g>
  </g>
  <g id="axes_4">
   <g id="patch_62">
    <path d="M 172.8 517.283222 
L 1244.16 517.283222 
L 1244.16 442.888735 
L 172.8 442.888735 
z
" style="fill:#ffffff;"/>
   </g>
   <g id="patch_63">
    <path clip-path="url(#p8b37031bab)" d="M 268.457143 480.085978 
L 306.72 480.085978 
L 306.72 478.178561 
L 268.457143 478.178561 
z
" style="fill:#1f77b4;"/>
   </g>
   <g id="patch_64">
    <path clip-path="url(#p8b37031bab)" d="M 651.085714 480.085978 
L 689.348571 480.085978 
L 689.348571 471.028307 
L 651.085714 471.028307 
z
" style="fill:#1f77b4;"/>
   </g>
   <g id="patch_65">
    <path clip-path="url(#p8b37031bab)" d="M 1033.714286 480.085978 
L 1071.977143 480.085978 
L 1071.977143 470.145702 
L 1033.714286 470.145702 
z
" style="fill:#1f77b4;"/>
   </g>
   <g id="patch_66">
    <path clip-path="url(#p8b37031bab)" d="M 306.72 480.085978 
L 344.982857 480.085978 
L 344.982857 489.883389 
L 306.72 489.883389 
z
" style="fill:#ff7f0e;"/>
   </g>
   <g id="patch_67">
    <path clip-path="url(#p8b37031bab)" d="M 689.348571 480.085978 
L 727.611429 480.085978 
L 727.611429 487.318267 
L 689.348571 487.318267 
z
" style="fill:#ff7f0e;"/>
   </g>
   <g id="patch_68">
    <path clip-path="url(#p8b37031bab)" d="M 1071.977143 480.085978 
L 1110.24 480.085978 
L 1110.24 487.023321 
L 1071.977143 487.023321 
z
" style="fill:#ff7f0e;"/>
   </g>
   <g id="patch_69">
    <path clip-path="url(#p8b37031bab)" d="M 344.982857 480.085978 
L 383.245714 480.085978 
L 383.245714 506.597255 
L 344.982857 506.597255 
z
" style="fill:#2ca02c;"/>
   </g>
   <g id="patch_70">
    <path clip-path="url(#p8b37031bab)" d="M 727.611429 480.085978 
L 765.874286 480.085978 
L 765.874286 499.447 
L 727.611429 499.447 
z
" style="fill:#2ca02c;"/>
   </g>
   <g id="patch_71">
    <path clip-path="url(#p8b37031bab)" d="M 1110.24 480.085978 
L 1148.502857 480.085978 
L 1148.502857 498.564396 
L 1110.24 498.564396 
z
" style="fill:#2ca02c;"/>
   </g>
   <g id="matplotlib.axis_7">
    <g id="xtick_16">
     <g id="line2d_25">
      <g>
       <use style="stroke:#000000;stroke-width:0.8;" x="325.851429" xlink:href="#mb4b51a97b5" y="517.283222"/>
      </g>
     </g>
     <g id="text_31">
      <!-- USA -->
      <g transform="translate(313.545804 533.401347)scale(0.12 -0.12)">
       <use xlink:href="#DejaVuSans-85"/>
       <use x="73.193359" xlink:href="#DejaVuSans-83"/>
       <use x="136.685547" xlink:href="#DejaVuSans-65"/>
      </g>
     </g>
    </g>
    <g id="xtick_17">
     <g id="line2d_26">
      <g>
       <use style="stroke:#000000;stroke-width:0.8;" x="708.48" xlink:href="#mb4b51a97b5" y="517.283222"/>
      </g>
     </g>
     <g id="text_32">
      <!-- EU -->
      <g transform="translate(700.2975 533.401347)scale(0.12 -0.12)">
       <use xlink:href="#DejaVuSans-69"/>
       <use x="63.183594" xlink:href="#DejaVuSans-85"/>
      </g>
     </g>
    </g>
    <g id="xtick_18">
     <g id="line2d_27">
      <g>
       <use style="stroke:#000000;stroke-width:0.8;" x="1091.108571" xlink:href="#mb4b51a97b5" y="517.283222"/>
      </g>
     </g>
     <g id="text_33">
      <!-- UK -->
      <g transform="translate(1082.782634 533.401347)scale(0.12 -0.12)">
       <use xlink:href="#DejaVuSans-85"/>
       <use x="73.193359" xlink:href="#DejaVuSans-75"/>
      </g>
     </g>
    </g>
   </g>
   <g id="matplotlib.axis_8">
    <g id="ytick_10">
     <g id="line2d_28">
      <g>
       <use style="stroke:#000000;stroke-width:0.8;" x="172.8" xlink:href="#m71dfe3234e" y="508.699242"/>
      </g>
     </g>
     <g id="text_34">
      <!-- −10000 -->
      <g transform="translate(117.569375 513.258305)scale(0.12 -0.12)">
       <use xlink:href="#DejaVuSans-8722"/>
       <use x="83.789062" xlink:href="#DejaVuSans-49"/>
       <use x="147.412109" xlink:href="#DejaVuSans-48"/>
       <use x="211.035156" xlink:href="#DejaVuSans-48"/>
       <use x="274.658203" xlink:href="#DejaVuSans-48"/>
       <use x="338.28125" xlink:href="#DejaVuSans-48"/>
      </g>
     </g>
    </g>
    <g id="ytick_11">
     <g id="line2d_29">
      <g>
       <use style="stroke:#000000;stroke-width:0.8;" x="172.8" xlink:href="#m71dfe3234e" y="480.085978"/>
      </g>
     </g>
     <g id="text_35">
      <!-- 0 -->
      <g transform="translate(158.165 484.645041)scale(0.12 -0.12)">
       <use xlink:href="#DejaVuSans-48"/>
      </g>
     </g>
    </g>
    <g id="ytick_12">
     <g id="line2d_30">
      <g>
       <use style="stroke:#000000;stroke-width:0.8;" x="172.8" xlink:href="#m71dfe3234e" y="451.472714"/>
      </g>
     </g>
     <g id="text_36">
      <!-- 10000 -->
      <g transform="translate(127.625 456.031777)scale(0.12 -0.12)">
       <use xlink:href="#DejaVuSans-49"/>
       <use x="63.623047" xlink:href="#DejaVuSans-48"/>
       <use x="127.246094" xlink:href="#DejaVuSans-48"/>
       <use x="190.869141" xlink:href="#DejaVuSans-48"/>
       <use x="254.492188" xlink:href="#DejaVuSans-48"/>
      </g>
     </g>
    </g>
    <g id="text_37">
     <!-- NEB $(MJ/t_{DM})$ -->
     <g transform="translate(111.049375 517.465978)rotate(-90)scale(0.12 -0.12)">
      <use transform="translate(0 0.125)" xlink:href="#DejaVuSans-78"/>
      <use transform="translate(74.804688 0.125)" xlink:href="#DejaVuSans-69"/>
      <use transform="translate(137.988281 0.125)" xlink:href="#DejaVuSans-66"/>
      <use transform="translate(206.591797 0.125)" xlink:href="#DejaVuSans-32"/>
      <use transform="translate(238.378906 0.125)" xlink:href="#DejaVuSans-40"/>
      <use transform="translate(277.392578 0.125)" xlink:href="#DejaVuSans-Oblique-77"/>
      <use transform="translate(363.671875 0.125)" xlink:href="#DejaVuSans-Oblique-74"/>
      <use transform="translate(393.164062 0.125)" xlink:href="#DejaVuSans-47"/>
      <use transform="translate(426.855469 0.125)" xlink:href="#DejaVuSans-Oblique-116"/>
      <use transform="translate(466.064453 -16.28125)scale(0.7)" xlink:href="#DejaVuSans-Oblique-68"/>
      <use transform="translate(519.96582 -16.28125)scale(0.7)" xlink:href="#DejaVuSans-Oblique-77"/>
      <use transform="translate(583.095703 0.125)" xlink:href="#DejaVuSans-41"/>
     </g>
    </g>
   </g>
   <g id="LineCollection_46">
    <path clip-path="url(#p8b37031bab)" d="M 289.501714 470.944155 
L 289.501714 487.45046 
" style="fill:none;stroke:#000000;stroke-width:1.5;"/>
   </g>
   <g id="LineCollection_47">
    <path clip-path="url(#p8b37031bab)" d="M 325.851429 485.850664 
L 325.851429 498.03774 
" style="fill:none;stroke:#000000;stroke-width:1.5;"/>
   </g>
   <g id="LineCollection_48">
    <path clip-path="url(#p8b37031bab)" d="M 362.201143 499.362849 
L 362.201143 515.869154 
" style="fill:none;stroke:#000000;stroke-width:1.5;"/>
   </g>
   <g id="LineCollection_49">
    <path clip-path="url(#p8b37031bab)" d="M 672.130286 467.077301 
L 672.130286 475.304788 
" style="fill:none;stroke:#000000;stroke-width:1.5;"/>
   </g>
   <g id="LineCollection_50">
    <path clip-path="url(#p8b37031bab)" d="M 708.48 484.74004 
L 708.48 492.199346 
" style="fill:none;stroke:#000000;stroke-width:1.5;"/>
   </g>
   <g id="LineCollection_51">
    <path clip-path="url(#p8b37031bab)" d="M 744.829714 495.495995 
L 744.829714 503.723482 
" style="fill:none;stroke:#000000;stroke-width:1.5;"/>
   </g>
   <g id="LineCollection_52">
    <path clip-path="url(#p8b37031bab)" d="M 1054.758857 464.716936 
L 1054.758857 481.907327 
" style="fill:none;stroke:#000000;stroke-width:1.5;"/>
   </g>
   <g id="LineCollection_53">
    <path clip-path="url(#p8b37031bab)" d="M 1091.108571 484.184714 
L 1091.108571 495.731282 
" style="fill:none;stroke:#000000;stroke-width:1.5;"/>
   </g>
   <g id="LineCollection_54">
    <path clip-path="url(#p8b37031bab)" d="M 1127.458286 493.13563 
L 1127.458286 510.326021 
" style="fill:none;stroke:#000000;stroke-width:1.5;"/>
   </g>
   <g id="patch_72">
    <path d="M 172.8 517.283222 
L 172.8 442.888735 
" style="fill:none;stroke:#000000;stroke-linecap:square;stroke-linejoin:miter;stroke-width:0.8;"/>
   </g>
   <g id="patch_73">
    <path d="M 1244.16 517.283222 
L 1244.16 442.888735 
" style="fill:none;stroke:#000000;stroke-linecap:square;stroke-linejoin:miter;stroke-width:0.8;"/>
   </g>
   <g id="patch_74">
    <path d="M 172.8 517.283222 
L 1244.16 517.283222 
" style="fill:none;stroke:#000000;stroke-linecap:square;stroke-linejoin:miter;stroke-width:0.8;"/>
   </g>
   <g id="patch_75">
    <path d="M 172.8 442.888735 
L 1244.16 442.888735 
" style="fill:none;stroke:#000000;stroke-linecap:square;stroke-linejoin:miter;stroke-width:0.8;"/>
   </g>
   <g id="text_38">
    <!-- SRC Willow -->
    <defs>
     <path d="M 35.890625 40.578125 
Q 41.796875 40.578125 44.359375 42.765625 
Q 46.921875 44.96875 46.921875 50 
Q 46.921875 54.984375 44.359375 57.125 
Q 41.796875 59.28125 35.890625 59.28125 
L 27.984375 59.28125 
L 27.984375 40.578125 
z
M 27.984375 27.59375 
L 27.984375 0 
L 9.1875 0 
L 9.1875 72.90625 
L 37.890625 72.90625 
Q 52.296875 72.90625 59 68.0625 
Q 65.71875 63.234375 65.71875 52.78125 
Q 65.71875 45.5625 62.21875 40.921875 
Q 58.734375 36.28125 51.703125 34.078125 
Q 55.5625 33.203125 58.609375 30.09375 
Q 61.671875 27 64.796875 20.703125 
L 75 0 
L 54.984375 0 
L 46.09375 18.109375 
Q 43.40625 23.578125 40.640625 25.578125 
Q 37.890625 27.59375 33.296875 27.59375 
z
" id="DejaVuSans-Bold-82"/>
     <path d="M 67 4 
Q 61.8125 1.3125 56.203125 -0.046875 
Q 50.59375 -1.421875 44.484375 -1.421875 
Q 26.265625 -1.421875 15.625 8.765625 
Q 4.984375 18.953125 4.984375 36.375 
Q 4.984375 53.859375 15.625 64.03125 
Q 26.265625 74.21875 44.484375 74.21875 
Q 50.59375 74.21875 56.203125 72.84375 
Q 61.8125 71.484375 67 68.796875 
L 67 53.71875 
Q 61.765625 57.28125 56.6875 58.9375 
Q 51.609375 60.59375 46 60.59375 
Q 35.9375 60.59375 30.171875 54.140625 
Q 24.421875 47.703125 24.421875 36.375 
Q 24.421875 25.09375 30.171875 18.640625 
Q 35.9375 12.203125 46 12.203125 
Q 51.609375 12.203125 56.6875 13.859375 
Q 61.765625 15.53125 67 19.09375 
z
" id="DejaVuSans-Bold-67"/>
     <path d="M 8.40625 75.984375 
L 25.875 75.984375 
L 25.875 0 
L 8.40625 0 
z
" id="DejaVuSans-Bold-108"/>
     <path d="M 34.421875 43.5 
Q 28.609375 43.5 25.5625 39.328125 
Q 22.515625 35.15625 22.515625 27.296875 
Q 22.515625 19.4375 25.5625 15.25 
Q 28.609375 11.078125 34.421875 11.078125 
Q 40.140625 11.078125 43.15625 15.25 
Q 46.1875 19.4375 46.1875 27.296875 
Q 46.1875 35.15625 43.15625 39.328125 
Q 40.140625 43.5 34.421875 43.5 
z
M 34.421875 56 
Q 48.53125 56 56.46875 48.375 
Q 64.40625 40.765625 64.40625 27.296875 
Q 64.40625 13.8125 56.46875 6.1875 
Q 48.53125 -1.421875 34.421875 -1.421875 
Q 20.265625 -1.421875 12.28125 6.1875 
Q 4.296875 13.8125 4.296875 27.296875 
Q 4.296875 40.765625 12.28125 48.375 
Q 20.265625 56 34.421875 56 
z
" id="DejaVuSans-Bold-111"/>
    </defs>
    <g transform="translate(670.592812 436.888735)scale(0.12 -0.12)">
     <use xlink:href="#DejaVuSans-Bold-83"/>
     <use x="72.021484" xlink:href="#DejaVuSans-Bold-82"/>
     <use x="149.023438" xlink:href="#DejaVuSans-Bold-67"/>
     <use x="222.412109" xlink:href="#DejaVuSans-Bold-32"/>
     <use x="257.226562" xlink:href="#DejaVuSans-Bold-87"/>
     <use x="367.529297" xlink:href="#DejaVuSans-Bold-105"/>
     <use x="401.806641" xlink:href="#DejaVuSans-Bold-108"/>
     <use x="436.083984" xlink:href="#DejaVuSans-Bold-108"/>
     <use x="470.361328" xlink:href="#DejaVuSans-Bold-111"/>
     <use x="539.0625" xlink:href="#DejaVuSans-Bold-119"/>
    </g>
   </g>
  </g>
  <g id="axes_5">
   <g id="patch_76">
    <path d="M 172.8 636.3144 
L 1244.16 636.3144 
L 1244.16 561.919914 
L 172.8 561.919914 
z
" style="fill:#ffffff;"/>
   </g>
   <g id="patch_77">
    <path clip-path="url(#p7ef9839f5f)" d="M 330.352941 599.117157 
L 372.367059 599.117157 
L 372.367059 577.412823 
L 330.352941 577.412823 
z
" style="fill:#1f77b4;"/>
   </g>
   <g id="patch_78">
    <path clip-path="url(#p7ef9839f5f)" d="M 960.564706 599.117157 
L 1002.578824 599.117157 
L 1002.578824 573.807609 
L 960.564706 573.807609 
z
" style="fill:#1f77b4;"/>
   </g>
   <g id="patch_79">
    <path clip-path="url(#p7ef9839f5f)" d="M 372.367059 599.117157 
L 414.381176 599.117157 
L 414.381176 597.222129 
L 372.367059 597.222129 
z
" style="fill:#ff7f0e;"/>
   </g>
   <g id="patch_80">
    <path clip-path="url(#p7ef9839f5f)" d="M 1002.578824 599.117157 
L 1044.592941 599.117157 
L 1044.592941 595.960313 
L 1002.578824 595.960313 
z
" style="fill:#ff7f0e;"/>
   </g>
   <g id="patch_81">
    <path clip-path="url(#p7ef9839f5f)" d="M 414.381176 599.117157 
L 456.395294 599.117157 
L 456.395294 605.682728 
L 414.381176 605.682728 
z
" style="fill:#2ca02c;"/>
   </g>
   <g id="patch_82">
    <path clip-path="url(#p7ef9839f5f)" d="M 1044.592941 599.117157 
L 1086.607059 599.117157 
L 1086.607059 602.077514 
L 1044.592941 602.077514 
z
" style="fill:#2ca02c;"/>
   </g>
   <g id="matplotlib.axis_9">
    <g id="xtick_19">
     <g id="line2d_31">
      <g>
       <use style="stroke:#000000;stroke-width:0.8;" x="393.374118" xlink:href="#mb4b51a97b5" y="636.3144"/>
      </g>
     </g>
     <g id="text_39">
      <!-- USA -->
      <g transform="translate(381.068493 652.432525)scale(0.12 -0.12)">
       <use xlink:href="#DejaVuSans-85"/>
       <use x="73.193359" xlink:href="#DejaVuSans-83"/>
       <use x="136.685547" xlink:href="#DejaVuSans-65"/>
      </g>
     </g>
    </g>
    <g id="xtick_20">
     <g id="line2d_32">
      <g>
       <use style="stroke:#000000;stroke-width:0.8;" x="1023.585882" xlink:href="#mb4b51a97b5" y="636.3144"/>
      </g>
     </g>
     <g id="text_40">
      <!-- UK -->
      <g transform="translate(1015.259945 652.432525)scale(0.12 -0.12)">
       <use xlink:href="#DejaVuSans-85"/>
       <use x="73.193359" xlink:href="#DejaVuSans-75"/>
      </g>
     </g>
    </g>
   </g>
   <g id="matplotlib.axis_10">
    <g id="ytick_13">
     <g id="line2d_33">
      <g>
       <use style="stroke:#000000;stroke-width:0.8;" x="172.8" xlink:href="#m71dfe3234e" y="627.730421"/>
      </g>
     </g>
     <g id="text_41">
      <!-- −10000 -->
      <g transform="translate(117.569375 632.289483)scale(0.12 -0.12)">
       <use xlink:href="#DejaVuSans-8722"/>
       <use x="83.789062" xlink:href="#DejaVuSans-49"/>
       <use x="147.412109" xlink:href="#DejaVuSans-48"/>
       <use x="211.035156" xlink:href="#DejaVuSans-48"/>
       <use x="274.658203" xlink:href="#DejaVuSans-48"/>
       <use x="338.28125" xlink:href="#DejaVuSans-48"/>
      </g>
     </g>
    </g>
    <g id="ytick_14">
     <g id="line2d_34">
      <g>
       <use style="stroke:#000000;stroke-width:0.8;" x="172.8" xlink:href="#m71dfe3234e" y="599.117157"/>
      </g>
     </g>
     <g id="text_42">
      <!-- 0 -->
      <g transform="translate(158.165 603.676219)scale(0.12 -0.12)">
       <use xlink:href="#DejaVuSans-48"/>
      </g>
     </g>
    </g>
    <g id="ytick_15">
     <g id="line2d_35">
      <g>
       <use style="stroke:#000000;stroke-width:0.8;" x="172.8" xlink:href="#m71dfe3234e" y="570.503893"/>
      </g>
     </g>
     <g id="text_43">
      <!-- 10000 -->
      <g transform="translate(127.625 575.062955)scale(0.12 -0.12)">
       <use xlink:href="#DejaVuSans-49"/>
       <use x="63.623047" xlink:href="#DejaVuSans-48"/>
       <use x="127.246094" xlink:href="#DejaVuSans-48"/>
       <use x="190.869141" xlink:href="#DejaVuSans-48"/>
       <use x="254.492188" xlink:href="#DejaVuSans-48"/>
      </g>
     </g>
    </g>
    <g id="text_44">
     <!-- NEB $(MJ/t_{DM})$ -->
     <g transform="translate(111.049375 636.497157)rotate(-90)scale(0.12 -0.12)">
      <use transform="translate(0 0.125)" xlink:href="#DejaVuSans-78"/>
      <use transform="translate(74.804688 0.125)" xlink:href="#DejaVuSans-69"/>
      <use transform="translate(137.988281 0.125)" xlink:href="#DejaVuSans-66"/>
      <use transform="translate(206.591797 0.125)" xlink:href="#DejaVuSans-32"/>
      <use transform="translate(238.378906 0.125)" xlink:href="#DejaVuSans-40"/>
      <use transform="translate(277.392578 0.125)" xlink:href="#DejaVuSans-Oblique-77"/>
      <use transform="translate(363.671875 0.125)" xlink:href="#DejaVuSans-Oblique-74"/>
      <use transform="translate(393.164062 0.125)" xlink:href="#DejaVuSans-47"/>
      <use transform="translate(426.855469 0.125)" xlink:href="#DejaVuSans-Oblique-116"/>
      <use transform="translate(466.064453 -16.28125)scale(0.7)" xlink:href="#DejaVuSans-Oblique-68"/>
      <use transform="translate(519.96582 -16.28125)scale(0.7)" xlink:href="#DejaVuSans-Oblique-77"/>
      <use transform="translate(583.095703 0.125)" xlink:href="#DejaVuSans-41"/>
     </g>
    </g>
   </g>
   <g id="LineCollection_55">
    <path clip-path="url(#p7ef9839f5f)" d="M 352.410353 579.08441 
L 352.410353 575.741207 
" style="fill:none;stroke:#000000;stroke-width:1.5;"/>
   </g>
   <g id="LineCollection_56">
    <path clip-path="url(#p7ef9839f5f)" d="M 393.374118 598.306657 
L 393.374118 596.137572 
" style="fill:none;stroke:#000000;stroke-width:1.5;"/>
   </g>
   <g id="LineCollection_57">
    <path clip-path="url(#p7ef9839f5f)" d="M 434.337882 604.011112 
L 434.337882 607.354315 
" style="fill:none;stroke:#000000;stroke-width:1.5;"/>
   </g>
   <g id="LineCollection_58">
    <path clip-path="url(#p7ef9839f5f)" d="M 982.622118 575.479196 
L 982.622118 572.151273 
" style="fill:none;stroke:#000000;stroke-width:1.5;"/>
   </g>
   <g id="LineCollection_59">
    <path clip-path="url(#p7ef9839f5f)" d="M 1023.585882 597.044841 
L 1023.585882 594.881106 
" style="fill:none;stroke:#000000;stroke-width:1.5;"/>
   </g>
   <g id="LineCollection_60">
    <path clip-path="url(#p7ef9839f5f)" d="M 1064.549647 600.421178 
L 1064.549647 603.749101 
" style="fill:none;stroke:#000000;stroke-width:1.5;"/>
   </g>
   <g id="patch_83">
    <path d="M 172.8 636.3144 
L 172.8 561.919914 
" style="fill:none;stroke:#000000;stroke-linecap:square;stroke-linejoin:miter;stroke-width:0.8;"/>
   </g>
   <g id="patch_84">
    <path d="M 1244.16 636.3144 
L 1244.16 561.919914 
" style="fill:none;stroke:#000000;stroke-linecap:square;stroke-linejoin:miter;stroke-width:0.8;"/>
   </g>
   <g id="patch_85">
    <path d="M 172.8 636.3144 
L 1244.16 636.3144 
" style="fill:none;stroke:#000000;stroke-linecap:square;stroke-linejoin:miter;stroke-width:0.8;"/>
   </g>
   <g id="patch_86">
    <path d="M 172.8 561.919914 
L 1244.16 561.919914 
" style="fill:none;stroke:#000000;stroke-linecap:square;stroke-linejoin:miter;stroke-width:0.8;"/>
   </g>
   <g id="text_45">
    <!-- Forest Residue -->
    <defs>
     <path d="M 9.1875 72.90625 
L 59.90625 72.90625 
L 59.90625 58.6875 
L 27.984375 58.6875 
L 27.984375 45.125 
L 58.015625 45.125 
L 58.015625 30.90625 
L 27.984375 30.90625 
L 27.984375 0 
L 9.1875 0 
z
" id="DejaVuSans-Bold-70"/>
     <path d="M 45.609375 46.6875 
L 45.609375 75.984375 
L 63.1875 75.984375 
L 63.1875 0 
L 45.609375 0 
L 45.609375 7.90625 
Q 42 3.078125 37.640625 0.828125 
Q 33.296875 -1.421875 27.59375 -1.421875 
Q 17.484375 -1.421875 10.984375 6.609375 
Q 4.5 14.65625 4.5 27.296875 
Q 4.5 39.9375 10.984375 47.96875 
Q 17.484375 56 27.59375 56 
Q 33.25 56 37.625 53.734375 
Q 42 51.46875 45.609375 46.6875 
z
M 34.078125 11.28125 
Q 39.703125 11.28125 42.65625 15.375 
Q 45.609375 19.484375 45.609375 27.296875 
Q 45.609375 35.109375 42.65625 39.203125 
Q 39.703125 43.3125 34.078125 43.3125 
Q 28.515625 43.3125 25.5625 39.203125 
Q 22.609375 35.109375 22.609375 27.296875 
Q 22.609375 19.484375 25.5625 15.375 
Q 28.515625 11.28125 34.078125 11.28125 
z
" id="DejaVuSans-Bold-100"/>
    </defs>
    <g transform="translate(657.75375 555.919914)scale(0.12 -0.12)">
     <use xlink:href="#DejaVuSans-Bold-70"/>
     <use x="68.248047" xlink:href="#DejaVuSans-Bold-111"/>
     <use x="136.949219" xlink:href="#DejaVuSans-Bold-114"/>
     <use x="186.265625" xlink:href="#DejaVuSans-Bold-101"/>
     <use x="254.087891" xlink:href="#DejaVuSans-Bold-115"/>
     <use x="313.609375" xlink:href="#DejaVuSans-Bold-116"/>
     <use x="361.412109" xlink:href="#DejaVuSans-Bold-32"/>
     <use x="396.226562" xlink:href="#DejaVuSans-Bold-82"/>
     <use x="473.228516" xlink:href="#DejaVuSans-Bold-101"/>
     <use x="541.050781" xlink:href="#DejaVuSans-Bold-115"/>
     <use x="600.572266" xlink:href="#DejaVuSans-Bold-105"/>
     <use x="634.849609" xlink:href="#DejaVuSans-Bold-100"/>
     <use x="706.431641" xlink:href="#DejaVuSans-Bold-117"/>
     <use x="777.623047" xlink:href="#DejaVuSans-Bold-101"/>
    </g>
   </g>
  </g>
  <g id="legend_1">
   <g id="patch_87">
    <path d="M 1274.803125 63.10875 
L 1374 63.10875 
Q 1376.4 63.10875 1376.4 60.70875 
L 1376.4 8.4 
Q 1376.4 6 1374 6 
L 1274.803125 6 
Q 1272.403125 6 1272.403125 8.4 
L 1272.403125 60.70875 
Q 1272.403125 63.10875 1274.803125 63.10875 
z
" style="fill:#ffffff;opacity:0.8;stroke:#cccccc;stroke-linejoin:miter;"/>
   </g>
   <g id="patch_88">
    <path d="M 1277.203125 19.918125 
L 1301.203125 19.918125 
L 1301.203125 11.518125 
L 1277.203125 11.518125 
z
" style="fill:#1f77b4;"/>
   </g>
   <g id="text_46">
    <!-- NEBpe_eq -->
    <defs>
     <path d="M 18.109375 8.203125 
L 18.109375 -20.796875 
L 9.078125 -20.796875 
L 9.078125 54.6875 
L 18.109375 54.6875 
L 18.109375 46.390625 
Q 20.953125 51.265625 25.265625 53.625 
Q 29.59375 56 35.59375 56 
Q 45.5625 56 51.78125 48.09375 
Q 58.015625 40.1875 58.015625 27.296875 
Q 58.015625 14.40625 51.78125 6.484375 
Q 45.5625 -1.421875 35.59375 -1.421875 
Q 29.59375 -1.421875 25.265625 0.953125 
Q 20.953125 3.328125 18.109375 8.203125 
z
M 48.6875 27.296875 
Q 48.6875 37.203125 44.609375 42.84375 
Q 40.53125 48.484375 33.40625 48.484375 
Q 26.265625 48.484375 22.1875 42.84375 
Q 18.109375 37.203125 18.109375 27.296875 
Q 18.109375 17.390625 22.1875 11.75 
Q 26.265625 6.109375 33.40625 6.109375 
Q 40.53125 6.109375 44.609375 11.75 
Q 48.6875 17.390625 48.6875 27.296875 
z
" id="DejaVuSans-112"/>
     <path d="M 56.203125 29.59375 
L 56.203125 25.203125 
L 14.890625 25.203125 
Q 15.484375 15.921875 20.484375 11.0625 
Q 25.484375 6.203125 34.421875 6.203125 
Q 39.59375 6.203125 44.453125 7.46875 
Q 49.3125 8.734375 54.109375 11.28125 
L 54.109375 2.78125 
Q 49.265625 0.734375 44.1875 -0.34375 
Q 39.109375 -1.421875 33.890625 -1.421875 
Q 20.796875 -1.421875 13.15625 6.1875 
Q 5.515625 13.8125 5.515625 26.8125 
Q 5.515625 40.234375 12.765625 48.109375 
Q 20.015625 56 32.328125 56 
Q 43.359375 56 49.78125 48.890625 
Q 56.203125 41.796875 56.203125 29.59375 
z
M 47.21875 32.234375 
Q 47.125 39.59375 43.09375 43.984375 
Q 39.0625 48.390625 32.421875 48.390625 
Q 24.90625 48.390625 20.390625 44.140625 
Q 15.875 39.890625 15.1875 32.171875 
z
" id="DejaVuSans-101"/>
     <path d="M 50.984375 -16.609375 
L 50.984375 -23.578125 
L -0.984375 -23.578125 
L -0.984375 -16.609375 
z
" id="DejaVuSans-95"/>
     <path d="M 14.796875 27.296875 
Q 14.796875 17.390625 18.875 11.75 
Q 22.953125 6.109375 30.078125 6.109375 
Q 37.203125 6.109375 41.296875 11.75 
Q 45.40625 17.390625 45.40625 27.296875 
Q 45.40625 37.203125 41.296875 42.84375 
Q 37.203125 48.484375 30.078125 48.484375 
Q 22.953125 48.484375 18.875 42.84375 
Q 14.796875 37.203125 14.796875 27.296875 
z
M 45.40625 8.203125 
Q 42.578125 3.328125 38.25 0.953125 
Q 33.9375 -1.421875 27.875 -1.421875 
Q 17.96875 -1.421875 11.734375 6.484375 
Q 5.515625 14.40625 5.515625 27.296875 
Q 5.515625 40.1875 11.734375 48.09375 
Q 17.96875 56 27.875 56 
Q 33.9375 56 38.25 53.625 
Q 42.578125 51.265625 45.40625 46.390625 
L 45.40625 54.6875 
L 54.390625 54.6875 
L 54.390625 -20.796875 
L 45.40625 -20.796875 
z
" id="DejaVuSans-113"/>
    </defs>
    <g transform="translate(1310.803125 19.918125)scale(0.12 -0.12)">
     <use xlink:href="#DejaVuSans-78"/>
     <use x="74.804688" xlink:href="#DejaVuSans-69"/>
     <use x="137.988281" xlink:href="#DejaVuSans-66"/>
     <use x="206.591797" xlink:href="#DejaVuSans-112"/>
     <use x="270.068359" xlink:href="#DejaVuSans-101"/>
     <use x="331.591797" xlink:href="#DejaVuSans-95"/>
     <use x="381.591797" xlink:href="#DejaVuSans-101"/>
     <use x="443.115234" xlink:href="#DejaVuSans-113"/>
    </g>
   </g>
   <g id="patch_89">
    <path d="M 1277.203125 37.865625 
L 1301.203125 37.865625 
L 1301.203125 29.465625 
L 1277.203125 29.465625 
z
" style="fill:#ff7f0e;"/>
   </g>
   <g id="text_47">
    <!-- NEBel_eq -->
    <g transform="translate(1310.803125 37.865625)scale(0.12 -0.12)">
     <use xlink:href="#DejaVuSans-78"/>
     <use x="74.804688" xlink:href="#DejaVuSans-69"/>
     <use x="137.988281" xlink:href="#DejaVuSans-66"/>
     <use x="206.591797" xlink:href="#DejaVuSans-101"/>
     <use x="268.115234" xlink:href="#DejaVuSans-108"/>
     <use x="295.898438" xlink:href="#DejaVuSans-95"/>
     <use x="345.898438" xlink:href="#DejaVuSans-101"/>
     <use x="407.421875" xlink:href="#DejaVuSans-113"/>
    </g>
   </g>
   <g id="patch_90">
    <path d="M 1277.203125 55.813125 
L 1301.203125 55.813125 
L 1301.203125 47.413125 
L 1277.203125 47.413125 
z
" style="fill:#2ca02c;"/>
   </g>
   <g id="text_48">
    <!-- NEBel -->
    <g transform="translate(1310.803125 55.813125)scale(0.12 -0.12)">
     <use xlink:href="#DejaVuSans-78"/>
     <use x="74.804688" xlink:href="#DejaVuSans-69"/>
     <use x="137.988281" xlink:href="#DejaVuSans-66"/>
     <use x="206.591797" xlink:href="#DejaVuSans-101"/>
     <use x="268.115234" xlink:href="#DejaVuSans-108"/>
    </g>
   </g>
  </g>
 </g>
 <defs>
  <clipPath id="p1b3f5df233">
   <rect height="74.394486" width="1071.36" x="172.8" y="85.7952"/>
  </clipPath>
  <clipPath id="p759542a180">
   <rect height="74.394486" width="1071.36" x="172.8" y="204.826378"/>
  </clipPath>
  <clipPath id="p6b300698f0">
   <rect height="74.394486" width="1071.36" x="172.8" y="323.857557"/>
  </clipPath>
  <clipPath id="p8b37031bab">
   <rect height="74.394486" width="1071.36" x="172.8" y="442.888735"/>
  </clipPath>
  <clipPath id="p7ef9839f5f">
   <rect height="74.394486" width="1071.36" x="172.8" y="561.919914"/>
  </clipPath>
 </defs>
</svg>
